<svg id="Layer_1" data-name="Layer 1" xmlns="http://www.w3.org/2000/svg" viewBox="0 0 260 260">
  <symbol id="test">
    <title>Artboard 1</title>
    <path d="M190.36,71.36h0a13.17,13.17,0,1,0-.1,0Z"/>
    <path d="M167.27,124.46h0a15.94,15.94,0,1,1,.06,0Z"/>
    <path d="M144.16,176.84h0a17.92,17.92,0,1,0-.13,0Z"/>
    <path d="M141.41,208.87a19.68,19.68,0,1,0-19.76,19.59h.12A19.72,19.72,0,0,0,141.41,208.87Z"/>
    <path d="M98.19,238.07a21.37,21.37,0,0,0-21.07,21.21h42.24A21.23,21.23,0,0,0,98.19,238.07Z"/>
    <path d="M64.3,199.08a9.68,9.68,0,0,0,0,19.35h0a9.63,9.63,0,1,0,.06-19.25H64.3Z"/>
    <path d="M213.36,16.19h0a7.76,7.76,0,0,0,7.74-7.73A7.52,7.52,0,0,0,213.4.7a7.75,7.75,0,1,0,0,15.49Z"/>
    <path d="M40.82,244.14a15.22,15.22,0,0,0-15.07,15.12H55.92a15,15,0,0,0-14.84-15.12Z"/>
    <path d="M215,108.67a9.61,9.61,0,0,0,9.56,9.66h0a9.63,9.63,0,1,0-9.6-9.66Z"/>
    <path d="M201.41,144a15,15,0,1,0,0,29.93h0a15,15,0,0,0,0-29.93Z"/>
    <path d="M197.89,208.87a18.87,18.87,0,1,0-19,18.76h0A18.91,18.91,0,0,0,197.89,208.87Z"/>
    <path d="M155.5,238.09a21.3,21.3,0,0,0-21.07,21.21h42.22a21.17,21.17,0,0,0-21.13-21.21Z"/>
    <path d="M211.88,238.07a21.35,21.35,0,0,0-21.07,21.21h42.32a21.21,21.21,0,0,0-21.21-21.21Z"/>
  </symbol>
</svg>
