<?xml version="1.0" encoding="UTF-8"?><!DOCTYPE svg PUBLIC "-//W3C//DTD SVG 1.1//EN"
  "http://www.w3.org/Graphics/SVG/1.1/DTD/svg11.dtd">
<svg xmlns="http://www.w3.org/2000/svg">
  <symbol id="elv-horizontal-color" viewBox="0 0 271 127.84">
    <title>elv-horizontal-color</title>
    <path
      d="M43.16 15.92a3 3 0 1 0-2.16-.88 3 3 0 0 0 2.12.88M38 27.39zm0 .49a3.55 3.55 0 1 0-2.52-1 3.49 3.49 0 0 0 2.5 1M32.74 39.2zm0 .49a4 4 0 1 0-2.87-1.19 4 4 0 0 0 2.87 1.19M27.68 50.83zm0 .5a4.43 4.43 0 1 0-4.44-4.5 4.45 4.45 0 0 0 4.44 4.45M22.39 63.010000000000005A4.76 4.76 0 1 0 19 61.6a4.78 4.78 0 0 0 3.39 1.41M45.39 96.26zm0-8.68a4.58 4.58 0 0 0-4.58 4.57 4.57 4.57 0 0 0 4.56 4.6 4.59 4.59 0 0 0 0-9.17M40.2 107.13zm0-7.87a4.2 4.2 0 0 0-4.2 4.17 4.18 4.18 0 0 0 4.17 4.19 4.18 4.18 0 1 0 0-8.36M35 117.57zm0-6.14a3.29 3.29 0 0 0-3.28 3.28 3.28 3.28 0 0 0 3.27 3.3 3.29 3.29 0 1 0 0-6.58M14.74 49.06a2.19 2.19 0 0 0 2.18-2.18 2.19 2.19 0 0 0-2.19-2.18 2.18 2.18 0 1 0 0 4.36M29.65 127.83a1.77 1.77 0 0 0 1.93-1.54 1.751 1.751 0 0 0-3.48-.4 1.76 1.76 0 0 0 1.5 1.94M48.33 3.4899999999999998a1.76 1.76 0 0 0 1.75-1.75A1.74 1.74 0 0 0 48.33 0a1.75 1.75 0 1 0 0 3.49M9.45 61.16zm0 .49a3.4 3.4 0 0 0 3.39-3.38 3.38 3.38 0 0 0-3.4-3.44 3.4 3.4 0 0 0 0 6.79M37.65 85.32a4.46 4.46 0 1 0-4.47-4.49 4.48 4.48 0 0 0 4.47 4.47zM32.46 95.71a3.58 3.58 0 1 0-3.57-3.59 3.59 3.59 0 0 0 3.55 3.59M27.33 105.23zM25 103.41a2.31 2.31 0 0 0 2.31 2.31 2.31 2.31 0 0 0 0-4.62 2.32 2.32 0 0 0-2.31 2.31M50.86 26.01zm-2.16-1.68a2.17 2.17 0 0 0 2.15 2.18 2.17 2.17 0 1 0-2.15-2.18M45.64 38.55zm0 .49a3.38 3.38 0 1 0-2.4-1 3.39 3.39 0 0 0 2.4 1zM40.59 50.64zm-4.25-3.81a4.25 4.25 0 0 0 4.23 4.26 4.25 4.25 0 1 0-4.23-4.26M68.71 65.97a3.59 3.59 0 0 0-3.56 3.56 3.57 3.57 0 0 0 3.55 3.59 3.58 3.58 0 0 0 0-7.15M63.45 78.47999999999999a2.31 2.31 0 0 0 0 4.62 2.31 2.31 0 1 0 0-4.62M35.31 62.52zm0 .49a4.76 4.76 0 1 0-4.77-4.78 4.76 4.76 0 0 0 4.74 4.78M60.93 63.010000000000005a4.76 4.76 0 1 0-3.39-1.41 4.78 4.78 0 0 0 3.39 1.41M73.85 62.09zm0 .44a4.28 4.28 0 1 0-3-1.26 4.23 4.23 0 0 0 3 1.26M4.29 73.39zm0 .44A4.28 4.28 0 1 0 0 69.53a4.18 4.18 0 0 0 1.25 3 4.2 4.2 0 0 0 3 1.27M17.22 73.83zm0 .49a4.76 4.76 0 1 0-3.39-1.41 4.78 4.78 0 0 0 3.39 1.41M30.14 73.83zm0 .5a4.76 4.76 0 1 0-4.77-4.78 4.68 4.68 0 0 0 1.38 3.37 4.76 4.76 0 0 0 3.36 1.41M48 63.010000000000005a4.76 4.76 0 1 0-3.39-1.41A4.77 4.77 0 0 0 48 63.01M42.84 73.83zm0 .5a4.76 4.76 0 1 0-4.76-4.78 4.68 4.68 0 0 0 1.38 3.37 4.73 4.73 0 0 0 3.35 1.41M55.75 73.83zm0 .5a4.76 4.76 0 1 0-3.39-1.41 4.76 4.76 0 0 0 3.39 1.41M50.56 85.08zm0 .49a4.75 4.75 0 1 0-3.39-1.4 4.76 4.76 0 0 0 3.39 1.4"
      fill="#00aae7"/>
    <path
      d="M122 81.06V46.32c-.83.25-1.66.53-2.46.79l-2.12.66c-.06 8.34 0 16.84 0 25v8.24zM161.49 67.18l-.05-.08h.07l.42-.36c1.86-1.52 4.65-3.8 4.82-9.67h-4.27a7.2 7.2 0 0 1-3.23 6.24c-3.2 2.51-5.77 4.71-5.8 4.73l-.17.14v-.21-21.59l-1.17.39c-1.11.36-2.27.74-3.42 1.08V81.08h4.59v-7.49l4.8-3.86.06.08s1.41 1.92 2.9 4.42c1.89 3.14 2.17 4 2.17 6.83h4.54c0-3.29-.15-4.55-2.61-8.41-1.74-2.72-3.65-5.44-3.67-5.47M214 47.1l-2.12.67v33.29h4.59V46.32c-.82.25-1.64.52-2.44.78M172.76 64.01c0 3.83 0 7.79.05 11.68 0 2.23 1.2 4.78 3.64 5.37a13.45 13.45 0 0 0 3 .35 8.62 8.62 0 0 0 4.63-1.2 8.81 8.81 0 0 1-.53-1.37 5.93 5.93 0 0 0-.8-1.79 7.24 7.24 0 0 1-4.26.72c-.88-.21-1.15-1.2-1.11-2v-15.6h4.99v-.73-2.36c-.77-.06-1.51-.06-2.08-.06H177.36v-6.37c-.83.13-1.66.31-2.45.49s-1.42.31-2.14.43v5.42h-2.46v3.18h2.46V64.01M198.5 60.54v-3.89h-1.42a21.79 21.79 0 0 0-10.38 2.14V81.09h4.59v-4.84-14.93h.07a19.68 19.68 0 0 1 5.9-.74h1.25M206.17 48.16a2.93 2.93 0 0 0-2.11-1 2.28 2.28 0 0 0-1.24.35 2.6 2.6 0 0 0-1.4 2.35 2.64 2.64 0 0 0 1.32 2.42 2.35 2.35 0 0 0 1.3.38 2.79 2.79 0 0 0 2.78-2.62 2.45 2.45 0 0 0-.65-1.92M201.84 56.99h4.59v24.07h-4.59zM270.33 48.16a2.91 2.91 0 0 0-2.11-1 2.31 2.31 0 0 0-1.24.35 2.78 2.78 0 0 0-.07 4.77 2.29 2.29 0 0 0 1.29.38 2.79 2.79 0 0 0 2.8-2.58 2.47 2.47 0 0 0-.66-1.92M266 56.99h4.58v24.07H266zM99 66.12c.05-2.57.79-4.3 2.21-5.14a6.19 6.19 0 0 1 3.1-.79 7.16 7.16 0 0 1 2.6.5c2.17 1 2.22 3.9 2.25 5.43v.1H99zm-3.8 9.81a7.86 7.86 0 0 0 5.74 5.06 17.64 17.64 0 0 0 3.7.42 10.51 10.51 0 0 0 5.36-1.33c2.28-1.39 3.08-4.09 3.35-5.66h-4.27a3.65 3.65 0 0 1-2.67 2.81 8.22 8.22 0 0 1-2.09.28 5.29 5.29 0 0 1-4.06-1.62C99 74.36 99 72.25 99 70.39v-.56h14.7v-.72c0-3 0-6-1.46-8.56a7.69 7.69 0 0 0-5.91-3.72 15.21 15.21 0 0 0-2-.14 10.21 10.21 0 0 0-7.1 2.5c-1.85 1.76-2.85 4.6-2.81 8v1.82a19.55 19.55 0 0 0 .75 7M130.58 66.12c0-2.59.75-4.27 2.16-5.14a6.2 6.2 0 0 1 3.11-.79 7.22 7.22 0 0 1 2.62.5c2.17 1 2.23 3.9 2.26 5.43v.1h-10.15zm-3.81 9.78a7.88 7.88 0 0 0 5.74 5.09 16.88 16.88 0 0 0 3.69.43 10.49 10.49 0 0 0 5.19-1.24c2.47-1.37 3.29-4.13 3.56-5.73h-4.28a3.65 3.65 0 0 1-2.67 2.81 8.48 8.48 0 0 1-2 .24 5.11 5.11 0 0 1-4.25-1.82c-1.15-1.52-1.13-3.43-1.12-5.27v-.58h14.7v-.72c0-3 0-6-1.46-8.6a7.73 7.73 0 0 0-5.96-3.68 15.17 15.17 0 0 0-2-.14 10.08 10.08 0 0 0-7 2.47c-2.54 2.37-2.87 6-2.84 8v2a19.05 19.05 0 0 0 .74 6.72M225.23 66.12c.05-2.62.77-4.3 2.21-5.14a6.11 6.11 0 0 1 3.08-.79 7.25 7.25 0 0 1 2.61.5c2.17 1 2.22 3.9 2.25 5.43v.1h-10.15zm7.44 11.11a8.5 8.5 0 0 1-2.11.28 5.25 5.25 0 0 1-4-1.62c-1.28-1.57-1.27-3.66-1.26-5.51v-.55H240v-.73c0-2.93 0-6-1.46-8.55a7.57 7.57 0 0 0-5.94-3.72 15.36 15.36 0 0 0-2-.14 10.12 10.12 0 0 0-7.06 2.47c-2.34 2.23-2.84 5.6-2.84 8v2a19.86 19.86 0 0 0 .64 6.42 7.76 7.76 0 0 0 5.66 5.35 16.32 16.32 0 0 0 3.89.49 10.86 10.86 0 0 0 5-1.1 7.73 7.73 0 0 0 3.78-5.9h-4.27a3.61 3.61 0 0 1-2.66 2.81M262.74 56.99h-4.52v.46c0 3.69 0 5.21-2.92 12.25l-3.05 6.63-3-6.63c-2.93-7-2.93-8.56-2.92-12.25v-.46h-4.53c0 4.43 0 6.88 2.92 13.31 2.16 4.78 2.92 6.32 5.21 10.76h4.72c2.29-4.44 3.05-6 5.22-10.76 2.91-6.43 2.91-8.88 2.91-13.31"
      fill="#333132"/>
  </symbol>
  <symbol id="elv-horizontal-white" viewBox="0 0 271 127.84">
    <title>elv-horizontal-white</title>
    <path
      d="M43.14 15.92a3 3 0 1 0-2.14-.88 3 3 0 0 0 2.16.88zM37.93 27.88a3.55 3.55 0 1 0-2.52-1 3.49 3.49 0 0 0 2.52 1zM32.72 39.69a4 4 0 1 0-2.87-1.19 4 4 0 0 0 2.9 1.19zM27.65 51.31a4.43 4.43 0 1 0-4.41-4.48 4.45 4.45 0 0 0 4.44 4.48zM27.14 58.27a4.76 4.76 0 1 0-4.78 4.74 4.78 4.78 0 0 0 4.78-4.74zM45.38 87.58a4.58 4.58 0 0 0-4.58 4.57 4.57 4.57 0 0 0 4.56 4.6 4.59 4.59 0 0 0 0-9.17zM40.2 99.26a4.2 4.2 0 0 0-4.2 4.17 4.18 4.18 0 0 0 4.17 4.19 4.18 4.18 0 1 0 0-8.36zM35 111.43a3.29 3.29 0 0 0-3.28 3.28 3.28 3.28 0 0 0 3.27 3.3 3.29 3.29 0 1 0 0-6.58zM14.73 49.06a2.19 2.19 0 0 0 2.18-2.18 2.19 2.19 0 0 0-2.19-2.18 2.18 2.18 0 1 0 0 4.36zM30 124.36a1.75 1.75 0 1 0-.4 3.47 1.77 1.77 0 0 0 1.93-1.54 1.75 1.75 0 0 0-1.53-1.93zM48.32 3.49a1.76 1.76 0 0 0 1.75-1.75A1.74 1.74 0 0 0 48.32 0a1.75 1.75 0 1 0 0 3.49zM11.86 55.83a3.35 3.35 0 0 0-2.42-1 3.4 3.4 0 0 0 0 6.79 3.4 3.4 0 0 0 3.39-3.38 3.34 3.34 0 0 0-.97-2.41zM37.65 85.3a4.46 4.46 0 1 0-4.47-4.47 4.48 4.48 0 0 0 4.47 4.47zM32.44 95.71a3.58 3.58 0 1 0-3.57-3.59 3.59 3.59 0 0 0 3.55 3.59zM29.63 103.42a2.31 2.31 0 1 0-2.31 2.3 2.3 2.3 0 0 0 2.31-2.3zM48.7 24.33a2.17 2.17 0 0 0 2.15 2.18 2.17 2.17 0 1 0-2.15-2.18zM45.64 39.04a3.38 3.38 0 1 0-2.4-1 3.39 3.39 0 0 0 2.4 1zM36.34 46.83a4.25 4.25 0 0 0 4.23 4.26 4.25 4.25 0 1 0-4.23-4.26zM68.69 65.97a3.59 3.59 0 0 0-3.56 3.56 3.57 3.57 0 0 0 3.55 3.59 3.58 3.58 0 0 0 0-7.15zM63.45 78.48a2.31 2.31 0 0 0 0 4.62 2.31 2.31 0 1 0 0-4.62zM30.54 58.23a4.76 4.76 0 0 0 4.74 4.78 4.76 4.76 0 1 0-4.77-4.78zM65.68 58.27a4.76 4.76 0 1 0-4.78 4.74 4.78 4.78 0 0 0 4.78-4.74zM73.83 53.97a4.28 4.28 0 0 0-3 7.3 4.23 4.23 0 0 0 3 1.26 4.28 4.28 0 1 0 0-8.56zM4.27 65.27A4.28 4.28 0 0 0 0 69.53a4.18 4.18 0 0 0 1.25 3 4.2 4.2 0 0 0 3 1.27 4.28 4.28 0 1 0 0-8.56zM17.2 64.83a4.76 4.76 0 0 0 0 9.52 4.76 4.76 0 1 0 0-9.52zM25.38 69.53a4.68 4.68 0 0 0 1.38 3.37 4.76 4.76 0 0 0 3.36 1.41 4.76 4.76 0 1 0-4.77-4.78zM48 63.01a4.76 4.76 0 1 0-3.39-1.41A4.77 4.77 0 0 0 48 63.01zM42.84 74.31a4.76 4.76 0 1 0-4.76-4.78 4.68 4.68 0 0 0 1.38 3.37 4.73 4.73 0 0 0 3.35 1.41zM55.73 64.83a4.76 4.76 0 0 0 0 9.52 4.76 4.76 0 0 0 0-9.52zM50.54 76.06a4.76 4.76 0 0 0 0 9.51 4.76 4.76 0 0 0 0-9.51zM117.4 47.77c-.06 8.34 0 16.84 0 25v8.24h4.6V46.32c-.83.25-1.66.53-2.46.79zM161.49 67.18l-.05-.08h.07l.42-.36c1.86-1.52 4.65-3.8 4.82-9.67h-4.27a7.18 7.18 0 0 1-3.24 6.24c-3.19 2.51-5.76 4.71-5.79 4.73l-.17.14v-.21-21.59l-1.17.39c-1.11.36-2.27.74-3.42 1.08V81.08h4.59v-7.49l4.8-3.86.06.08s1.41 1.92 2.9 4.42c1.89 3.14 2.17 4 2.17 6.83h4.54c0-3.29-.15-4.55-2.61-8.41-1.72-2.72-3.63-5.44-3.65-5.47zM211.88 47.77v33.29h4.59V46.32c-.82.25-1.64.52-2.44.78zM182.73 77.05a7.24 7.24 0 0 1-4.26.72c-.88-.21-1.15-1.2-1.11-2v-15.6h4.99v-.73-2.36c-.77-.06-1.51-.06-2.08-.06H177.34v-6.37c-.83.13-1.66.31-2.45.49s-1.42.31-2.14.43v5.42h-2.46v3.18h2.46V64.01c0 3.83 0 7.79.05 11.68 0 2.23 1.2 4.78 3.64 5.37a13.45 13.45 0 0 0 3 .35 8.62 8.62 0 0 0 4.63-1.2 8.81 8.81 0 0 1-.53-1.37 5.93 5.93 0 0 0-.81-1.79zM186.7 58.76V81.06h4.59v-4.84-14.93h.07a19.68 19.68 0 0 1 5.9-.74h1.25v-3.89h-1.42a21.79 21.79 0 0 0-10.39 2.1zM204.06 47.2a2.28 2.28 0 0 0-1.24.35 2.6 2.6 0 0 0-1.4 2.35 2.64 2.64 0 0 0 1.32 2.42 2.35 2.35 0 0 0 1.3.38 2.79 2.79 0 0 0 2.78-2.62 2.45 2.45 0 0 0-.65-1.92 2.93 2.93 0 0 0-2.11-.96zM201.84 56.99h4.59v24.07h-4.59zM266.91 52.32a2.29 2.29 0 0 0 1.29.38 2.79 2.79 0 0 0 2.8-2.62 2.47 2.47 0 0 0-.66-1.92 2.91 2.91 0 0 0-2.11-1 2.31 2.31 0 0 0-1.24.35 2.78 2.78 0 0 0-.07 4.77zM266 56.99h4.58v24.07H266zM106.33 56.83a15.21 15.21 0 0 0-2-.14 10.21 10.21 0 0 0-7.1 2.5c-1.85 1.76-2.85 4.6-2.81 8v1.82a19.55 19.55 0 0 0 .75 7 7.86 7.86 0 0 0 5.74 5.06 17.64 17.64 0 0 0 3.7.42 10.51 10.51 0 0 0 5.39-1.41c2.28-1.39 3.08-4.09 3.35-5.66h-4.27a3.65 3.65 0 0 1-2.67 2.81 8.22 8.22 0 0 1-2.09.28 5.29 5.29 0 0 1-4.06-1.62C99 74.36 99 72.25 99 70.39v-.56h14.7v-.72c0-3 0-6-1.46-8.56a7.69 7.69 0 0 0-5.91-3.72zM99 66.22v-.1c.05-2.57.79-4.3 2.21-5.14a6.19 6.19 0 0 1 3.1-.79 7.16 7.16 0 0 1 2.6.5c2.17 1 2.22 3.9 2.25 5.43v.1zM137.91 56.83a15.17 15.17 0 0 0-2-.14 10.08 10.08 0 0 0-7 2.47c-2.54 2.37-2.87 6-2.84 8v2a19.05 19.05 0 0 0 .74 6.72 7.88 7.88 0 0 0 5.74 5.09 16.88 16.88 0 0 0 3.69.43 10.49 10.49 0 0 0 5.19-1.24c2.47-1.37 3.29-4.13 3.56-5.73h-4.28a3.65 3.65 0 0 1-2.71 2.83 8.48 8.48 0 0 1-2 .24 5.11 5.11 0 0 1-4.25-1.82c-1.15-1.52-1.13-3.43-1.12-5.27v-.58h14.7v-.72c0-3 0-6-1.46-8.6a7.73 7.73 0 0 0-5.96-3.68zm-7.33 9.43v-.1c0-2.59.75-4.27 2.16-5.14a6.2 6.2 0 0 1 3.11-.79 7.22 7.22 0 0 1 2.62.5c2.17 1 2.23 3.9 2.26 5.43v.1zM232.6 56.83a15.47 15.47 0 0 0-2-.14 10.12 10.12 0 0 0-7.06 2.47c-2.34 2.23-2.84 5.6-2.84 8v2a19.86 19.86 0 0 0 .64 6.42 7.76 7.76 0 0 0 5.66 5.35 16.32 16.32 0 0 0 3.89.49 10.86 10.86 0 0 0 5-1.1 7.73 7.73 0 0 0 3.78-5.9h-4.27a3.61 3.61 0 0 1-2.66 2.81 8.5 8.5 0 0 1-2.11.28 5.25 5.25 0 0 1-4-1.62c-1.28-1.57-1.26-3.66-1.26-5.51v-.55H240v-.73c0-2.93 0-6-1.46-8.55a7.57 7.57 0 0 0-5.94-3.72zm-7.37 9.43v-.1c.05-2.62.77-4.3 2.21-5.14a6.11 6.11 0 0 1 3.08-.79 7.25 7.25 0 0 1 2.61.5c2.17 1 2.22 3.9 2.25 5.43v.1zM258.22 57.45c0 3.69 0 5.21-2.92 12.25l-3.05 6.63-3-6.63c-2.93-7-2.93-8.56-2.92-12.25v-.46h-4.53c0 4.43 0 6.88 2.92 13.31 2.16 4.78 2.92 6.32 5.21 10.76h4.72c2.29-4.44 3.05-6 5.22-10.76 2.91-6.43 2.91-8.88 2.91-13.31h-4.52z"
      fill="#fff"/>
  </symbol>
  <symbol id="elv-slogan-horizontal-color" viewBox="0 0 271 119.31">
    <title>elv-slogan-horizontal-color</title>
    <path
      d="M40.28 14.86a2.77 2.77 0 1 0-2-.82 2.78 2.78 0 0 0 2 .82M35.42 25.57zm0 .47a3.32 3.32 0 1 0-3.31-3.33 3.29 3.29 0 0 0 1 2.35 3.38 3.38 0 0 0 2.34 1M30.56 36.57zm0 .46a3.76 3.76 0 1 0-2.68-1.11 3.76 3.76 0 0 0 2.68 1.11M25.83 47.43zm0 .46a4.14 4.14 0 1 0-4.14-4.15 4.14 4.14 0 0 0 4.14 4.15M20.89 58.81a4.46 4.46 0 1 0-3.15-1.31 4.41 4.41 0 0 0 3.13 1.31M42.36 89.84zm0-8.09a4.27 4.27 0 0 0-4.27 4.26 4.27 4.27 0 0 0 4.25 4.29 4.28 4.28 0 1 0 0-8.55M37.52 99.99zm0-7.35a3.92 3.92 0 0 0-3.9 3.9 3.89 3.89 0 0 0 3.89 3.91 3.91 3.91 0 1 0 0-7.81M32.68 109.73zm0-5.73a3.08 3.08 0 0 0-2.18 5.24 3 3 0 0 0 2.17.9 3.07 3.07 0 1 0 0-6.14M13.75 45.790000000000006a2 2 0 0 0 2-2 2 2 0 0 0-2-2 2.035 2.035 0 1 0 0 4.07M27.67 119.3a1.63 1.63 0 1 0-1.44-1.8 1.63 1.63 0 0 0 1.44 1.8M45.11 3.2600000000000002a1.64 1.64 0 0 0 1.63-1.63 1.62 1.62 0 0 0-.48-1.15A1.59 1.59 0 0 0 45.11 0a1.63 1.63 0 0 0 0 3.26M8.82 57.08zm0 .46A3.18 3.18 0 0 0 12 54.39a3.22 3.22 0 0 0-.92-2.26 3.17 3.17 0 1 0-4.52 4.44 3.12 3.12 0 0 0 2.24 1M35.14 79.61999999999999A4.17 4.17 0 1 0 31 75.44a4.17 4.17 0 0 0 4.17 4.18zM30.3 89.33a3.33 3.33 0 0 0 2.36-5.68 3.26 3.26 0 0 0-2.37-1 3.33 3.33 0 0 0-2.36 5.68 3.29 3.29 0 0 0 2.35 1M25.51 98.22zm-2.17-1.71a2.16 2.16 0 0 0 2.15 2.16 2.16 2.16 0 1 0-2.17-2.16M47.47 24.28zm-2-1.57a2 2 0 0 0 2 2 2 2 0 1 0-2-2M42.59 35.98zm0 .45a3.14 3.14 0 1 0-2.24-.92 3.15 3.15 0 0 0 2.24.92zM37.88 47.26zm-4-3.52a4 4 0 0 0 4 4 4 4 0 1 0-4-4M64.12 61.580000000000005a3.34 3.34 0 0 0 0 6.67 3.34 3.34 0 1 0 0-6.67M59.22 73.25a2.16 2.16 0 0 0 0 4.31 2.16 2.16 0 1 0 0-4.31M33 58.35zm0 .46a4.44 4.44 0 1 0-3.16-1.31 4.41 4.41 0 0 0 3.13 1.31M56.87 58.81a4.44 4.44 0 1 0-3.17-1.31 4.46 4.46 0 0 0 3.17 1.31M68.92 57.95zm0 .41a4 4 0 1 0-2.84-1.17 4 4 0 0 0 2.81 1.17M4 68.49zm0 .42a4 4 0 1 0-4-4 4 4 0 0 0 4 4M16.07 68.9zm0 .45a4.44 4.44 0 1 0-3.16-1.31A4.39 4.39 0 0 0 16 69.35M28.13 68.89zm0 .46a4.44 4.44 0 1 0-4.45-4.45A4.4 4.4 0 0 0 25 68.04a4.45 4.45 0 0 0 3.14 1.31M44.81 58.81a4.44 4.44 0 1 0-4.45-4.46 4.44 4.44 0 0 0 4.42 4.46M40 68.89zm0 .46a4.44 4.44 0 1 0-4.44-4.46A4.44 4.44 0 0 0 40 69.35M52 68.89zm0 .46a4.44 4.44 0 1 0-3.16-1.31A4.44 4.44 0 0 0 52 69.35M47.18 79.41zm0 .46a4.44 4.44 0 1 0-4.44-4.46A4.41 4.41 0 0 0 44 78.57a4.45 4.45 0 0 0 3.14 1.31"
      fill="#00aae7"/>
    <path
      d="M113.85 75.66V43.24c-.78.23-1.55.49-2.31.73l-2 .62v31.07zM150.72 62.7l-.05-.07h.06l.4-.33a10.71 10.71 0 0 0 4.5-9h-4a6.67 6.67 0 0 1-3 5.82c-3 2.35-5.38 4.4-5.4 4.42l-.16.13v-.2-20.15l-1.07.25c-1 .35-2.12.7-3.18 1v31.04h4.27v-7l4.49-3.6.05.08s1.31 1.79 2.71 4.12c1.76 2.93 2 3.73 2 6.38h4.23c0-3.08-.13-4.25-2.44-7.86-1.62-2.53-3.4-5.07-3.42-5.1M199.73 43.96l-2 .63v31.07H202V43.24c-.76.23-1.53.48-2.27.72M161.24 59.74v10.9c0 2.08 1.13 4.47 3.41 5a12.74 12.74 0 0 0 2.77.32 8 8 0 0 0 4.32-1.12 8.65 8.65 0 0 1-.49-1.28 5.88 5.88 0 0 0-.75-1.67 6.68 6.68 0 0 1-4 .68c-.83-.2-1.08-1.12-1-1.92V56.16H170.15v-.69-2.2c-.71-.06-1.41-.06-1.94-.06H165.47v-5.94c-.77.12-1.54.29-2.29.46s-1.32.29-2 .41v5H159v3h2.3v3.58M185.26 56.51v-3.64h-1.33a20.28 20.28 0 0 0-9.69 2V75.68h4.28v-4.54-13.93h.06a18.17 18.17 0 0 1 5.5-.7h1.17M192.41 44.95a2.73 2.73 0 0 0-2-.9 2.19 2.19 0 0 0-1.16.33 2.43 2.43 0 0 0-1.25 2.19 2.47 2.47 0 0 0 1.23 2.26 2.27 2.27 0 0 0 1.21.35 2.6 2.6 0 0 0 2.6-2.45 2.28 2.28 0 0 0-.62-1.79M188.37 53.19h4.28v22.46h-4.28zM252.3 44.95a2.72 2.72 0 0 0-2-.9 2.16 2.16 0 0 0-1.15.33 2.59 2.59 0 0 0-.07 4.46 2.24 2.24 0 0 0 1.2.35 2.6 2.6 0 0 0 2.6-2.45 2.27 2.27 0 0 0-.61-1.79M248.26 53.19h4.28v22.46h-4.28zM92.36 61.71c0-2.39.74-4 2.06-4.8a5.82 5.82 0 0 1 2.89-.73 6.41 6.41 0 0 1 2.43.47c2 1 2.07 3.63 2.1 5.06v.1h-9.48zm-3.55 9.16a7.36 7.36 0 0 0 5.36 4.7 16.57 16.57 0 0 0 3.46.4 9.78 9.78 0 0 0 5-1.24c2.13-1.31 2.88-3.83 3.13-5.29h-4a3.39 3.39 0 0 1-2.48 2.62 7.65 7.65 0 0 1-2 .26 4.9 4.9 0 0 1-3.78-1.51c-1.2-1.43-1.18-3.4-1.18-5.13v-.57h13.72v-.67c0-2.75 0-5.6-1.36-8a7.18 7.18 0 0 0-5.52-3.47 15 15 0 0 0-1.88-.12 9.5 9.5 0 0 0-6.62 2.32c-1.73 1.65-2.66 4.3-2.62 7.47v1.7a18.34 18.34 0 0 0 .7 6.5M121.87 61.71c0-2.41.7-4 2-4.8a5.84 5.84 0 0 1 2.9-.73 6.55 6.55 0 0 1 2.45.47c2 1 2.07 3.63 2.1 5.06v.1h-9.47zm-3.55 9.13a7.32 7.32 0 0 0 5.35 4.73 15.75 15.75 0 0 0 3.44.4 9.85 9.85 0 0 0 4.89-1.13c2.3-1.28 3.07-3.86 3.32-5.35h-4a3.4 3.4 0 0 1-2.51 2.65 7.89 7.89 0 0 1-1.86.23 4.8 4.8 0 0 1-4-1.7c-1.07-1.42-1-3.2-1-4.93v-.58h13.72v-.67c0-2.75 0-5.6-1.36-8a7.25 7.25 0 0 0-5.55-3.43 14.64 14.64 0 0 0-1.86-.12 9.43 9.43 0 0 0-6.58 2.3c-2.36 2.21-2.67 5.64-2.65 7.49v1.9a17.48 17.48 0 0 0 .7 6.27M210.21 61.71c0-2.44.72-4 2.06-4.8a5.75 5.75 0 0 1 2.87-.73 6.54 6.54 0 0 1 2.44.47c2 1 2.08 3.63 2.1 5.06v.1h-9.48zm6.94 10.37a7.78 7.78 0 0 1-2 .26 4.86 4.86 0 0 1-3.76-1.51c-1.2-1.46-1.19-3.42-1.18-5.14v-.56H224v-.69c0-2.73 0-5.55-1.36-8a7.09 7.09 0 0 0-5.51-3.47 15.07 15.07 0 0 0-1.88-.12 9.48 9.48 0 0 0-6.6 2.3c-2.19 2.08-2.65 5.22-2.65 7.49v1.89a18.6 18.6 0 0 0 .6 6 7.23 7.23 0 0 0 5.26 5 15 15 0 0 0 3.63.46 10.14 10.14 0 0 0 4.63-1 7.22 7.22 0 0 0 3.53-5.51h-4a3.35 3.35 0 0 1-2.48 2.62M245.22 53.19H241v.43c0 3.44 0 4.87-2.73 11.43l-2.84 6.19-2.84-6.18c-2.74-6.57-2.73-8-2.73-11.44v-.43h-4.22c0 4.14 0 6.42 2.72 12.43 2 4.46 2.73 5.9 4.87 10h4.4c2.14-4.14 2.85-5.58 4.87-10 2.72-6 2.72-8.29 2.72-12.43M81.32 92.32a9.39 9.39 0 0 1 2.42.41c.52.18.79.38.81.61a.55.55 0 0 1-.21.53c-.16.12-.21.23-.14.32s.19.1.35 0a1.16 1.16 0 0 0 .38-.22 1.73 1.73 0 0 0 .34-.41 1.64 1.64 0 0 0 .22-.51 1 1 0 0 0-.06-.58 1.31 1.31 0 0 0-.79-.72 10.8 10.8 0 0 0-1.18-.36 11.91 11.91 0 0 0-2-.29c-.74 0-1.49-.07-2.25-.07-1.07 0-2.09 0-3.08.12s-1.83.17-2.53.27q-.66.09-1.47.27c-.53.12-1 .25-1.52.39a11.06 11.06 0 0 0-1.28.45 1.42 1.42 0 0 0-.68.49.79.79 0 0 0-.09.47.73.73 0 0 0 .15.37.47.47 0 0 0 .3.18.4.4 0 0 0 .36-.18 5.32 5.32 0 0 1 1.81-.72 30.39 30.39 0 0 1 4.5-.79 7.49 7.49 0 0 1 .89-.07h1.1c-.16.38-.43 1-.8 1.72s-.75 1.57-1.21 2.57l-1.37 2.79c-.46.93-.86 1.76-1.21 2.49-.42.88-.76 1.63-1 2.25s-.48 1.13-.63 1.56a9.64 9.64 0 0 0-.32 1.09c-.06.29-.11.57-.15.83a1.09 1.09 0 0 0 .06.5 1.25 1.25 0 0 0 .27.44 1 1 0 0 0 .41.25.52.52 0 0 0 .44 0 2.13 2.13 0 0 0 .45-.35l.55-.53a4.84 4.84 0 0 0 .45-.51q.18-.24.15-.33h-.18l-.42.26c-.17.1-.33.19-.5.27a.65.65 0 0 1-.38.09q-.09 0 .06-.57c.1-.36.26-.83.47-1.41s.46-1.22.75-2 .62-1.47 1-2.21.78-1.61 1.26-2.52.91-1.78 1.32-2.6.77-1.52 1.06-2.11.46-1 .5-1.07a2.06 2.06 0 0 0-.11-.36 3.79 3.79 0 0 0-.26-.58c.95-.02 1.97.01 2.99.08zM126.69 102.62a.39.39 0 0 0-.34 0 1.08 1.08 0 0 0-.37.37 10.31 10.31 0 0 1-1.18 1.45 11.58 11.58 0 0 1-1.58 1.38 9 9 0 0 1-1.78 1 4 4 0 0 1-1.77.32.82.82 0 0 1-.69-.45 2.19 2.19 0 0 1-.25-1.12 5 5 0 0 1 .43-1.9 6.15 6.15 0 0 1 1.3-2 7.86 7.86 0 0 1 1.2-1.06 10.52 10.52 0 0 1 1.18-.74 3.49 3.49 0 0 1 .93-.36c.26 0 .43 0 .49.11s-.05.45-.38.81a8.25 8.25 0 0 1-1.22 1.07 10.91 10.91 0 0 1-1.45.89 2 2 0 0 1-1.09.3q-.24-.06-.33.09a.42.42 0 0 0 0 .35.75.75 0 0 0 .27.36.7.7 0 0 0 .57.11 4.19 4.19 0 0 0 1.14-.38 8.88 8.88 0 0 0 1.32-.77 13.1 13.1 0 0 0 1.2-.93 4 4 0 0 0 .78-.91 2 2 0 0 0 .24-.87 1.25 1.25 0 0 0-.47-1 1.36 1.36 0 0 0-1.28-.23 5.63 5.63 0 0 0-1.28.47 8 8 0 0 0-1.45.93 9.37 9.37 0 0 0-1.43 1.45 8.08 8.08 0 0 0-.72 1c-.23.26-.49.55-.79.85s-.83.85-1.3 1.3a12.76 12.76 0 0 1-1.37 1.17 6.94 6.94 0 0 1-1.27.77 1.18 1.18 0 0 1-1 .13c-.3-.13-.43-.41-.37-.85a6.59 6.59 0 0 1 .37-1.49c.2-.56.42-1.11.67-1.68a10.12 10.12 0 0 0 .51-1.42 1.07 1.07 0 0 0-.06-.72 1.13 1.13 0 0 0-.42-.47 1.56 1.56 0 0 0-.58-.21.93.93 0 0 0-.51 0 6.7 6.7 0 0 0-1.46 1 22.8 22.8 0 0 0-1.72 1.59c-.58.57-1.1 1.14-1.59 1.7a14.79 14.79 0 0 0-1 1.3c.06-.24.12-.54.19-.91s.15-.76.23-1.19.16-.87.24-1.33.17-.89.27-1.31a1.27 1.27 0 0 0 0-.75 1.71 1.71 0 0 0-.38-.61 1.14 1.14 0 0 0-.57-.31.85.85 0 0 0-.61.07 5 5 0 0 0-.89.65c-.33.29-.69.63-1.07 1s-.77.8-1.16 1.25l-1.16 1.35c-.89 1.06-1.8 2.22-2.75 3.47.49-1.09.91-2.1 1.27-3 .16-.38.31-.77.45-1.16s.27-.75.38-1.07.2-.61.26-.85a2.46 2.46 0 0 0 .09-.51.76.76 0 0 0-.2-.47.83.83 0 0 0-.16-.12.4.4 0 0 0-.1-.12.21.21 0 0 0-.27 0 5 5 0 0 1-.72.28c-.32.1-.68.19-1.06.27s-.78.14-1.19.19a9.7 9.7 0 0 1-1.16.08 3.72 3.72 0 0 1-.88-.09c-.28-.08-.51-.16-.69-.23l-.48-.19-.39-.15-.4-.13c-.16 0-.26 0-.31.13a1.17 1.17 0 0 0-.08.45 2 2 0 0 0 .08.53c0 .17.11.26.19.28a1.06 1.06 0 0 0 .58.15 1.08 1.08 0 0 0 .36 0l.12.24a1.94 1.94 0 0 1 .12.7 2.74 2.74 0 0 1-.09.66 3.56 3.56 0 0 1-.36.85 9.12 9.12 0 0 1-.94 1.2 11 11 0 0 1-1.31 1.24 7.73 7.73 0 0 1-1.37.91 1.52 1.52 0 0 1-1.06.21.56.56 0 0 1-.26-.35 2.2 2.2 0 0 1-.1-.74 5.92 5.92 0 0 1 .15-1.21 6 6 0 0 1 .51-1.41 8.48 8.48 0 0 1 1-1.63 10.37 10.37 0 0 1 1-1.1 4.44 4.44 0 0 1 .83-.65q.36-.21.48-.3a.18.18 0 0 0 .06-.23.71.71 0 0 0-.21-.26 1.06 1.06 0 0 0-.35-.18.4.4 0 0 0-.34 0 4.34 4.34 0 0 0-.67.44 5 5 0 0 1-.72.28c-.32.1-.68.19-1.06.27s-.78.14-1.19.19a9.7 9.7 0 0 1-1.16.08 3.72 3.72 0 0 1-.88-.09c-.28-.08-.51-.16-.69-.23l-.48-.19-.4-.15-.39-.13c-.16 0-.26 0-.31.13a1 1 0 0 0-.08.45 1.63 1.63 0 0 0 .08.53c.05.17.11.26.19.28a1.06 1.06 0 0 0 .58.15 1.08 1.08 0 0 0 .36 0l.12.24a1.94 1.94 0 0 1 .12.7 2.74 2.74 0 0 1-.09.66 3.56 3.56 0 0 1-.36.85 9.12 9.12 0 0 1-.94 1.2 11 11 0 0 1-1.31 1.24 7.73 7.73 0 0 1-1.37.91 1.52 1.52 0 0 1-1.06.21.56.56 0 0 1-.26-.35 2.2 2.2 0 0 1-.1-.74 5.92 5.92 0 0 1 .15-1.21 6 6 0 0 1 .51-1.41 8 8 0 0 1 1-1.63 10.37 10.37 0 0 1 1-1.1 4.44 4.44 0 0 1 .83-.65q.36-.21.48-.3a.18.18 0 0 0 .06-.23.71.71 0 0 0-.21-.26 1.06 1.06 0 0 0-.35-.18.42.42 0 0 0-.35 0 4.92 4.92 0 0 0-.66.44 9.52 9.52 0 0 0-.89.77c-.31.3-.62.63-.92 1a6.51 6.51 0 0 0-.75 1.07 8.16 8.16 0 0 0-.86 2.07 6.82 6.82 0 0 0-.23 1.58 3.55 3.55 0 0 0 .06.71 4.48 4.48 0 0 0 .12.47 1.51 1.51 0 0 0 .94.89 1.88 1.88 0 0 0 1.26 0 6.87 6.87 0 0 0 1.17-.6 10.77 10.77 0 0 0 1.35-1 14.16 14.16 0 0 0 1.3-1.27 6.58 6.58 0 0 0 1-1.37 4.25 4.25 0 0 0 .35-.83 2.64 2.64 0 0 0 .1-.71 2 2 0 0 0-.06-.5c0-.15-.08-.27-.12-.38a2 2 0 0 0-.18-.3 2.82 2.82 0 0 0 1 .12h1c.35 0 .78-.08 1.16-.14l.64-.11c-.11.11-.21.22-.31.34a6.51 6.51 0 0 0-.75 1.07 8.16 8.16 0 0 0-.86 2.07 6.82 6.82 0 0 0-.23 1.58 3.55 3.55 0 0 0 .06.71 4.48 4.48 0 0 0 .12.47 1.51 1.51 0 0 0 .94.89 1.88 1.88 0 0 0 1.26 0 6.87 6.87 0 0 0 1.17-.6 10.77 10.77 0 0 0 1.35-1 14.16 14.16 0 0 0 1.3-1.27 6.58 6.58 0 0 0 1-1.37 4.25 4.25 0 0 0 .35-.83 2.64 2.64 0 0 0 .1-.71 2 2 0 0 0-.06-.5c0-.15-.08-.27-.12-.38a2 2 0 0 0-.18-.3 2.86 2.86 0 0 0 1 .12h1c.35 0 .78-.08 1.16-.14s.74-.13 1.09-.21.41-.11.57-.16a5.93 5.93 0 0 1-.26.84c-.23.63-.49 1.29-.8 2l-.86 2a9.43 9.43 0 0 0-.52 1.42.9.9 0 0 0 .1.61 1.27 1.27 0 0 0 .44.5 1 1 0 0 0 .59.17.67.67 0 0 0 .53-.41q.15-.24.63-.9c.32-.45.71-.94 1.16-1.5s.94-1.13 1.47-1.73 1-1.16 1.52-1.66a17.75 17.75 0 0 1 1.33-1.25 1.63 1.63 0 0 1 .86-.5c.14 0 .18.2.12.62a15 15 0 0 1-.31 1.5c-.14.6-.3 1.23-.48 1.91s-.33 1.27-.45 1.79a1.34 1.34 0 0 0 0 1 .6.6 0 0 0 .52.29 1.45 1.45 0 0 0 .79-.26 1.22 1.22 0 0 0 .51-.56 3.49 3.49 0 0 1 .48-.71c.28-.35.62-.75 1-1.2l1.27-1.41c.45-.48.88-.9 1.28-1.26a6.82 6.82 0 0 1 1.07-.82c.32-.18.51-.19.59 0a1 1 0 0 1-.07.77c-.13.37-.29.81-.49 1.3s-.37 1-.54 1.54a4.81 4.81 0 0 0-.25 1.46 1.91 1.91 0 0 0 .19.89 1.21 1.21 0 0 0 .71.56 2 2 0 0 0 1.34 0 6.59 6.59 0 0 0 1.5-.79 11.79 11.79 0 0 0 1.49-1.24c.3-.28.58-.57.85-.85a4.77 4.77 0 0 0-.11 1 2.68 2.68 0 0 0 .83 2.08 2.32 2.32 0 0 0 2.22.42 6.83 6.83 0 0 0 2-.78 10.48 10.48 0 0 0 1.68-1.22 13.05 13.05 0 0 0 1.32-1.39 12.37 12.37 0 0 0 .94-1.28 1.12 1.12 0 0 0 .21-.55c.05-.23.01-.32-.08-.36zM193.65 103.89a11.9 11.9 0 0 1-1 1 14.94 14.94 0 0 1-1.4 1.2 9.08 9.08 0 0 1-1.48.92 1.45 1.45 0 0 1-1.15.17.49.49 0 0 1-.3-.56 4.42 4.42 0 0 1 .24-1.06 10.71 10.71 0 0 1 .56-1.31l.69-1.36c.24-.44.44-.84.62-1.19a4.6 4.6 0 0 0 .34-.8.63.63 0 0 0-.1-.41.92.92 0 0 0-.31-.31.73.73 0 0 0-.38-.12.24.24 0 0 0-.24.21 6.36 6.36 0 0 1-.38.86 1.22 1.22 0 0 0-.34.32c-.37.48-.85 1-1.47 1.71a25.29 25.29 0 0 1-2 1.91 15.43 15.43 0 0 1-2 1.52 3.53 3.53 0 0 1-1.77.62c-.34 0-.51-.18-.52-.53a3.67 3.67 0 0 1 .27-1.31 10.47 10.47 0 0 1 .8-1.68 16 16 0 0 1 1-1.61.89.89 0 0 0 .26-1 .6.6 0 0 0-.68-.36l-.56.06h-.62a3.17 3.17 0 0 1-.73-.07.68.68 0 0 1-.44-.26l.63-1a8.09 8.09 0 0 0 .51-.93.3.3 0 0 0 0-.33.81.81 0 0 0-.29-.29.77.77 0 0 0-.39-.11.45.45 0 0 0-.36.22l-.44.51a7.12 7.12 0 0 0-.5.66 4.6 4.6 0 0 0-.4.76 1.83 1.83 0 0 0-.17.78.49.49 0 0 0 .09.3l-.09.12a1.12 1.12 0 0 0-.33.37 14.07 14.07 0 0 1-1.69 1.94 24.86 24.86 0 0 1-2.28 2 15.91 15.91 0 0 1-2.35 1.48 3.22 3.22 0 0 1-2 .42c-.42-.08-.63-.4-.63-1a4.92 4.92 0 0 1 .28-1.5 14.7 14.7 0 0 1 .65-1.66 16.48 16.48 0 0 1 .94-1.88l.66-1.08.63-1c.23-.36.45-.7.67-1h4.16a.21.21 0 0 0 .23-.08.63.63 0 0 0 .1-.25.65.65 0 0 0 0-.31.57.57 0 0 0-.14-.24.42.42 0 0 0-.27-.1 4.57 4.57 0 0 0-.53 0h-2.85l.59-1c.21-.37.4-.72.57-1.07s.32-.68.44-1a2 2 0 0 0 .18-.68.6.6 0 0 0-.13-.47 1 1 0 0 0-.38-.28.75.75 0 0 0-.41-.06.24.24 0 0 0-.22.21c0 .06-.11.22-.25.5s-.31.6-.51 1-.43.85-.69 1.34l-.79 1.49h-1.37a7 7 0 0 1-.77 0 .28.28 0 0 0-.24.17.83.83 0 0 0 0 .77.41.41 0 0 0 .38.18 2.05 2.05 0 0 0 .54 0l.94-.1c-.36.68-.69 1.29-1 1.82s-.41.74-.53.94a1.47 1.47 0 0 0-.6.56c-.26.34-.64.79-1.12 1.35a17 17 0 0 1-1.63 1.68 14.16 14.16 0 0 1-1.91 1.48 4.86 4.86 0 0 1-1.92.77 1.87 1.87 0 0 1-1-.09 1.43 1.43 0 0 1-.61-.53 2 2 0 0 1-.31-.79 5.58 5.58 0 0 1 0-1.88l1.46-.88 1.36-.83c.41-.25.76-.47 1.06-.68a4.65 4.65 0 0 0 .55-.42.85.85 0 0 0 .25-.54 1.09 1.09 0 0 0-.1-.6.78.78 0 0 0-.37-.41.71.71 0 0 0-.62 0 9.36 9.36 0 0 0-1 .64c-.44.32-.9.69-1.38 1.1s-.94.82-1.38 1.24a6.74 6.74 0 0 0-.92 1 4.31 4.31 0 0 1-.42.28l-.51.32-.64.36 2.75-4.52c.64-.85 1.23-1.63 1.75-2.36s.85-1.23 1.24-1.84a6.25 6.25 0 0 0 .69-1.3 2.2 2.2 0 0 0 0-.86 3.86 3.86 0 0 0-.24-.89 1.36 1.36 0 0 0-.35-.52c-.12-.09-.21 0-.27.16s-.39.89-.8 1.71-.9 1.74-1.47 2.77-1.16 2.13-1.79 3.26l-.7 1.25a.27.27 0 0 0-.12 0 .93.93 0 0 0-.37.37 9.82 9.82 0 0 1-.85 1c-.36.4-.77.82-1.23 1.25s-1 .86-1.48 1.27a18 18 0 0 1-1.57 1.1 9.21 9.21 0 0 1-1.5.76 2.63 2.63 0 0 1-1.22.21.9.9 0 0 1-.69-.5 2.34 2.34 0 0 1-.24-1.13 5 5 0 0 1 .42-1.87 6.26 6.26 0 0 1 1.3-2 7.86 7.86 0 0 1 1.2-1.06 11.51 11.51 0 0 1 1.18-.74 3.41 3.41 0 0 1 .94-.36c.26 0 .42 0 .48.11s-.05.45-.38.81a8.25 8.25 0 0 1-1.22 1.07 10.3 10.3 0 0 1-1.45.89 2 2 0 0 1-1.09.3q-.24-.06-.33.09a.42.42 0 0 0 0 .35.75.75 0 0 0 .27.36.73.73 0 0 0 .58.11 4.14 4.14 0 0 0 1.13-.38 9.51 9.51 0 0 0 1.33-.77 12.92 12.92 0 0 0 1.19-.93 4 4 0 0 0 .78-.91 2 2 0 0 0 .24-.87 1.27 1.27 0 0 0-.46-1 1.39 1.39 0 0 0-1.29-.23 5.63 5.63 0 0 0-1.28.47 8.35 8.35 0 0 0-1.45.93 9.37 9.37 0 0 0-1.43 1.45 7.93 7.93 0 0 0-.61.87c-.27.31-.57.64-.91 1s-.82.84-1.27 1.28-.89.84-1.31 1.19a7.22 7.22 0 0 1-1.09 1.08 1.18 1.18 0 0 1-.83.2c-.33-.08-.49-.41-.49-1a7 7 0 0 1 .39-2c.27-.81.56-1.6.88-2.37s.79-1.81 1.3-2.77l1.41-2.32c.37-.63.72-1.25 1.08-1.86a7.77 7.77 0 0 0 .67-1.4 2.1 2.1 0 0 0 .13-.55 4.63 4.63 0 0 0 0-.51 1.75 1.75 0 0 0-.26-1c-.17-.23-.37-.17-.59.2a8.77 8.77 0 0 0-.6 1c-.28.53-.61 1.16-1 1.88s-.77 1.52-1.18 2.37-.8 1.68-1.16 2.46-.69 1.5-1 2.16a1.22 1.22 0 0 1-.07.17 1 1 0 0 0-.32.33 9.56 9.56 0 0 1-.84 1c-.37.4-.78.82-1.24 1.25s-1 .86-1.48 1.27a15.43 15.43 0 0 1-1.57 1.1 9.14 9.14 0 0 1-1.49.76 2.63 2.63 0 0 1-1.22.21.9.9 0 0 1-.7-.5 2.34 2.34 0 0 1-.24-1.13 5 5 0 0 1 .42-1.87 6.62 6.62 0 0 1 1.3-2 7.92 7.92 0 0 1 1.21-1.06 9.69 9.69 0 0 1 1.18-.74 3.49 3.49 0 0 1 .93-.36c.26 0 .42 0 .48.11s0 .45-.37.81a8.36 8.36 0 0 1-1.23 1.07 10.22 10.22 0 0 1-1.44.89 2 2 0 0 1-1.09.3q-.24-.06-.33.09a.42.42 0 0 0 0 .35.75.75 0 0 0 .27.36.7.7 0 0 0 .57.11 4.14 4.14 0 0 0 1.13-.38 8.49 8.49 0 0 0 1.33-.77 12.92 12.92 0 0 0 1.19-.93 3.83 3.83 0 0 0 .79-.91 2 2 0 0 0 .24-.87 1.28 1.28 0 0 0-.47-1 1.37 1.37 0 0 0-1.28-.23 5.63 5.63 0 0 0-1.28.47 7.66 7.66 0 0 0-1.45.93 9.88 9.88 0 0 0-1.44 1.45 9.51 9.51 0 0 0-1.23 2 5.1 5.1 0 0 0-.48 2.08 3.26 3.26 0 0 0 .22 1.24 2.44 2.44 0 0 0 .63.9 2.13 2.13 0 0 0 1 .48 2.73 2.73 0 0 0 1.2 0 7.24 7.24 0 0 0 2.2-1 17.66 17.66 0 0 0 2.13-1.63 20 20 0 0 0 1.83-1.86l.32-.38c-.08.32-.16.67-.25 1a8.16 8.16 0 0 0-.22 1.84 2.72 2.72 0 0 0 .34 1.44 1.21 1.21 0 0 0 1.26.46 2.35 2.35 0 0 0 1.08-.45 13.29 13.29 0 0 0 1.34-1c.48-.41.95-.87 1.42-1.36.22-.22.42-.44.62-.65a4.34 4.34 0 0 0-.12 1 3.26 3.26 0 0 0 .23 1.24 2.44 2.44 0 0 0 .63.9 2.09 2.09 0 0 0 .95.48 2.77 2.77 0 0 0 1.21 0 7.35 7.35 0 0 0 2.2-1 19.39 19.39 0 0 0 2.13-1.63q.62-.56 1.17-1.14c-.28.48-.53.92-.77 1.32-.42.72-.7 1.18-.84 1.36a.54.54 0 0 0-.06.45 1.47 1.47 0 0 0 .21.53.59.59 0 0 0 .35.27c.13 0 .25-.08.37-.32l.41-.74c.15-.27.3-.54.44-.83l.51-1 .61-.33a5.86 5.86 0 0 0 .67-.4l.83-.51a4.48 4.48 0 0 0 0 .95 3.82 3.82 0 0 0 .28 1.25 2.88 2.88 0 0 0 .75 1.11 2 2 0 0 0 1.42.46 4.16 4.16 0 0 0 1.69-.37 9.4 9.4 0 0 0 1.63-1 11.88 11.88 0 0 0 1.49-1.28c.47-.47.89-.92 1.27-1.36l.33-.38a10.75 10.75 0 0 0-.44 1.32 5.87 5.87 0 0 0-.21 1.49 2.31 2.31 0 0 0 .32 1.24 1.47 1.47 0 0 0 1.1.63 3.78 3.78 0 0 0 1.79-.21 8.66 8.66 0 0 0 1.89-.92 14.21 14.21 0 0 0 1.82-1.37c.52-.45 1-.9 1.43-1.33a.37.37 0 0 0 .25-.15 4.4 4.4 0 0 1 .36-.39c.18-.18.39-.4.62-.66l.71-.83c.24-.3.46-.59.66-.89a3.81 3.81 0 0 0 1.3.27 2.51 2.51 0 0 0 1.06-.12 7.57 7.57 0 0 0-.47.71c-.23.37-.47.81-.72 1.31a13.18 13.18 0 0 0-.68 1.58 4.34 4.34 0 0 0-.31 1.53 1.66 1.66 0 0 0 .25.93 1.3 1.3 0 0 0 .84.54 2.5 2.5 0 0 0 1.4-.19 7.86 7.86 0 0 0 1.66-.91 18.23 18.23 0 0 0 1.74-1.35c.58-.52 1.12-1 1.61-1.53.2-.2.38-.39.55-.58-.18.41-.35.82-.5 1.25a5.26 5.26 0 0 0-.36 1.78 1.68 1.68 0 0 0 .25 1 1.32 1.32 0 0 0 .89.49 2.7 2.7 0 0 0 1.77-.34 10 10 0 0 0 1.73-1.19 14.48 14.48 0 0 0 1.42-1.38c.4-.45.66-.76.78-.92q.38-.51.15-.75t-.65.35zM191.66 97.16a1.85 1.85 0 0 0 .74-.36 1 1 0 0 0 .44-.82.65.65 0 0 0-.14-.43.92.92 0 0 0-.35-.26 1.07 1.07 0 0 0-.43-.09 2 2 0 0 0-.38 0 .84.84 0 0 0-.45.53 2.16 2.16 0 0 0-.15.74q0 .78.72.69zM218.82 95.08c.1-.34.23-.82.39-1.42a6.93 6.93 0 0 0 .24-1.78 3.62 3.62 0 0 0-.15-1.06 1.25 1.25 0 0 0-.54-.72 3.69 3.69 0 0 0-2-.39 13.53 13.53 0 0 0-2.76.33 18.25 18.25 0 0 0-3.06.94 16.13 16.13 0 0 0-2 1 10 10 0 0 0-1.66 1.16 5.41 5.41 0 0 0-1.15 1.37 2.67 2.67 0 0 0-.36 1.55 2.42 2.42 0 0 0 .71 1.56 11.64 11.64 0 0 0 1.66 1.45q1 .7 2.1 1.41a24.76 24.76 0 0 1 2 1.44 7.7 7.7 0 0 1 1.51 1.51 2.19 2.19 0 0 1 .47 1.66 1.7 1.7 0 0 1-.53 1 3.85 3.85 0 0 1-1.24.8 8.55 8.55 0 0 1-1.78.52 10.54 10.54 0 0 1-2.15.2 12.26 12.26 0 0 1-2.16-.18 6.79 6.79 0 0 1-1.73-.53 2.47 2.47 0 0 1-1-.83 1.11 1.11 0 0 1-.07-1.08c.1-.27.06-.45-.11-.56s-.35 0-.55.34a2.24 2.24 0 0 0-.34 1.15 1.72 1.72 0 0 0 .55 1.27 4.22 4.22 0 0 0 1.37.89 8.74 8.74 0 0 0 1.85.53 11.61 11.61 0 0 0 2 .18 14.48 14.48 0 0 0 2.8-.26 9 9 0 0 0 2.25-.72 4.8 4.8 0 0 0 1.52-1.15 2.79 2.79 0 0 0 .67-1.52 3.27 3.27 0 0 0-.44-2.06 7.34 7.34 0 0 0-1.46-1.73 17.57 17.57 0 0 0-2-1.51l-2.1-1.37a15.31 15.31 0 0 1-1.7-1.3 2.14 2.14 0 0 1-.8-1.33 1.56 1.56 0 0 1 .41-1.34 5.53 5.53 0 0 1 1.28-1.1 10.86 10.86 0 0 1 1.54-.82q.78-.33 1.2-.48l1-.32c.44-.13.91-.25 1.42-.37s1-.22 1.56-.3a9.2 9.2 0 0 1 1.38-.12 2.28 2.28 0 0 1 .88.15.64.64 0 0 1 .33.34 1.35 1.35 0 0 1 .09.5 2.83 2.83 0 0 1-.07.63 4 4 0 0 1-.19.64l-.19.56a3.13 3.13 0 0 0-.12.4.87.87 0 0 0 0 .62 1 1 0 0 0 .37.44.73.73 0 0 0 .46.14.38.38 0 0 0 .4-.33zM222.68 97.16a1.92 1.92 0 0 0 .74-.36 1 1 0 0 0 .43-.82.65.65 0 0 0-.13-.43.92.92 0 0 0-.35-.26 1.12 1.12 0 0 0-.44-.09 1.9 1.9 0 0 0-.37 0 .85.85 0 0 0-.46.53 2.16 2.16 0 0 0-.15.74c.05.53.24.75.73.69zM268.3 97.16a1.92 1.92 0 0 0 .74-.36 1 1 0 0 0 .43-.82.65.65 0 0 0-.13-.43.92.92 0 0 0-.35-.26 1.12 1.12 0 0 0-.44-.09 1.9 1.9 0 0 0-.37 0 .85.85 0 0 0-.46.53 2.16 2.16 0 0 0-.15.74c0 .53.25.75.73.69zM270.92 103.62q-.21-.24-.63.27a11.9 11.9 0 0 1-1 1 14.94 14.94 0 0 1-1.4 1.2 9.08 9.08 0 0 1-1.48.92 1.45 1.45 0 0 1-1.15.17.49.49 0 0 1-.3-.56 4.42 4.42 0 0 1 .24-1.06 10.71 10.71 0 0 1 .56-1.31l.69-1.36.62-1.19a3.75 3.75 0 0 0 .33-.8.62.62 0 0 0-.09-.41.87.87 0 0 0-.32-.31.7.7 0 0 0-.37-.12.24.24 0 0 0-.24.21 5.87 5.87 0 0 1-.38.85h-.06a1.09 1.09 0 0 0-.41.4c-.2.28-.46.6-.78 1s-.68.76-1.07 1.16-.81.79-1.26 1.17a14.17 14.17 0 0 1-1.31 1 6.45 6.45 0 0 1-1.22.66 1.65 1.65 0 0 1-1 .11c-.28-.07-.42-.32-.42-.76a4.46 4.46 0 0 1 .24-1.3c.16-.5.35-1 .56-1.54s.42-1 .62-1.47a7.14 7.14 0 0 0 .39-1.09 1.23 1.23 0 0 0 0-.57 1.56 1.56 0 0 0-.29-.61 1.19 1.19 0 0 0-.56-.39 1.33 1.33 0 0 0-.83 0 3.36 3.36 0 0 0-.92.54c-.33.27-.68.58-1 .94s-.73.76-1.1 1.21-.73.88-1.07 1.32c-.81 1-1.63 2.21-2.48 3.47.41-1 .78-2 1.12-2.8l.42-1.09c.14-.36.27-.69.4-1s.21-.57.28-.79.12-.38.14-.48a.56.56 0 0 0-.06-.45.66.66 0 0 0-.33-.19.43.43 0 0 0-.57.34 6.37 6.37 0 0 1-.18.62c-.08.23-.18.48-.3.76v.09a1 1 0 0 0-.14.19 8.09 8.09 0 0 1-.54.66c-.29.32-.62.68-1 1.07s-.8.81-1.25 1.24-.9.83-1.33 1.19a10 10 0 0 1-1.21.89 1.9 1.9 0 0 1-.92.35c-.32 0-.48-.25-.48-.76a5.18 5.18 0 0 1 .24-1.4c.16-.55.36-1.12.59-1.69s.46-1.11.69-1.6.42-.86.56-1.1a1.16 1.16 0 0 0 .14-.62 1.2 1.2 0 0 0-.17-.59.57.57 0 0 0-.41-.28.79.79 0 0 0-.61.25 10 10 0 0 0-.85.89l-1.4 1.59-1.71 1.91c-.59.64-1.16 1.23-1.71 1.76a13.44 13.44 0 0 1-1.44 1.24c-.43.33-.74.46-.92.4s-.4-.3-.36-.67a4.57 4.57 0 0 1 .39-1.29 12.78 12.78 0 0 1 .85-1.62c.34-.57.67-1.11 1-1.61s.61-.94.86-1.3a3.69 3.69 0 0 0 .39-.66 1.63 1.63 0 0 0 0-.76 1.38 1.38 0 0 0-.27-.57.56.56 0 0 0-.37-.23c-.12 0-.19.08-.21.26a7 7 0 0 1-.74 1.55c-.19.34-.39.68-.6 1h-.12a1.09 1.09 0 0 0-.41.4c-.2.28-.46.6-.78 1s-.68.76-1.07 1.16-.81.79-1.25 1.17a15.72 15.72 0 0 1-1.32 1 6.45 6.45 0 0 1-1.22.66 1.65 1.65 0 0 1-1 .11c-.28-.07-.42-.32-.42-.76a4.46 4.46 0 0 1 .24-1.3c.16-.5.35-1 .56-1.54s.42-1 .62-1.47a7.14 7.14 0 0 0 .39-1.09 1.23 1.23 0 0 0 0-.57 1.56 1.56 0 0 0-.29-.61 1.19 1.19 0 0 0-.56-.39 1.33 1.33 0 0 0-.83 0 3.36 3.36 0 0 0-.92.54c-.33.27-.68.58-1 .94s-.73.76-1.1 1.21-.73.88-1.07 1.32c-.81 1-1.63 2.21-2.47 3.47.4-1 .77-2 1.11-2.8l.42-1.09c.14-.36.28-.69.4-1s.21-.57.28-.79.12-.38.14-.48a.56.56 0 0 0-.06-.45.7.7 0 0 0-.27-.25.47.47 0 0 0-.35 0 .45.45 0 0 0-.23.32 6.37 6.37 0 0 1-.18.62c-.08.23-.18.48-.3.76v.1a28.282 28.282 0 0 1-1.84 2.06c-.44.45-.91.91-1.4 1.37s-1 .88-1.42 1.24a6.92 6.92 0 0 1-1.24.82c-.37.18-.65.21-.83.09s-.26-.3-.25-.61a4.45 4.45 0 0 1 .18-1 10.08 10.08 0 0 1 .45-1.25c.19-.44.38-.87.57-1.28l.52-1.13a4.54 4.54 0 0 0 .28-.79.62.62 0 0 0-.09-.41.92.92 0 0 0-.31-.31.76.76 0 0 0-.38-.12.24.24 0 0 0-.24.21c-.06.2-.21.56-.43 1.07s-.46 1.09-.72 1.73-.49 1.31-.69 2a6.05 6.05 0 0 0-.31 1.77 1.93 1.93 0 0 0 .18.87 1 1 0 0 0 .61.48 2.08 2.08 0 0 0 1.42-.16 7.37 7.37 0 0 0 1.61-1 19.64 19.64 0 0 0 1.65-1.46c.54-.54 1-1.07 1.47-1.57l.31-.35c-.11.26-.21.52-.31.77-.2.53-.38 1-.55 1.41l-.35.83a.83.83 0 0 0 0 .67 1 1 0 0 0 .41.49 1.19 1.19 0 0 0 .56.18.4.4 0 0 0 .41-.23 9.23 9.23 0 0 1 .61-.95c.34-.47.72-1 1.17-1.6s.92-1.21 1.45-1.85 1-1.23 1.5-1.75a15.47 15.47 0 0 1 1.32-1.29c.39-.33.68-.47.89-.43s.19.28 0 .72-.35 1-.6 1.61-.5 1.31-.73 2a6.14 6.14 0 0 0-.34 1.87 1.93 1.93 0 0 0 .22 1 1.08 1.08 0 0 0 .83.48 3.6 3.6 0 0 0 2.37-.51 12.1 12.1 0 0 0 2.31-1.71c.44-.41.84-.82 1.22-1.23l-.15.28a4.68 4.68 0 0 0-.56 1.72 2.18 2.18 0 0 0 .44 1.54 1.41 1.41 0 0 0 1.1.54 1.85 1.85 0 0 0 .94-.27 5.68 5.68 0 0 0 .83-.63c.31-.28.64-.6 1-1s.72-.73 1.09-1.13l1.1-1.21 2.56-3a17.17 17.17 0 0 0-.87 1.93 16 16 0 0 0-.59 1.77 6.73 6.73 0 0 0-.26 1.73 2.47 2.47 0 0 0 .21 1.06 1.14 1.14 0 0 0 .76.6 1.81 1.81 0 0 0 1.24-.18 8 8 0 0 0 1.52-1 16.56 16.56 0 0 0 1.58-1.39c.53-.51 1-1 1.47-1.52a3.33 3.33 0 0 1 .25-.28l-.27.67c-.2.53-.38 1-.56 1.41l-.34.83a.83.83 0 0 0 0 .67 1 1 0 0 0 .41.49 1.19 1.19 0 0 0 .56.18.39.39 0 0 0 .4-.23 10 10 0 0 1 .62-.95c.33-.47.72-1 1.17-1.6s.92-1.21 1.44-1.85 1-1.23 1.51-1.75a15.51 15.51 0 0 1 1.31-1.29c.4-.33.69-.47.89-.43s.2.28.05.72-.35 1-.6 1.61-.5 1.31-.73 2a6.19 6.19 0 0 0-.35 1.87 1.93 1.93 0 0 0 .23 1 1.08 1.08 0 0 0 .83.48 3.63 3.63 0 0 0 2.37-.51 12.76 12.76 0 0 0 2.31-1.71 17.25 17.25 0 0 0 1.63-1.71c-.19.44-.38.88-.55 1.34a5.26 5.26 0 0 0-.36 1.78 1.68 1.68 0 0 0 .26 1 1.32 1.32 0 0 0 .89.49 2.67 2.67 0 0 0 1.76-.34 9.74 9.74 0 0 0 1.74-1.19 15.69 15.69 0 0 0 1.42-1.38c.4-.45.66-.76.78-.92q.2-.39-.01-.63z"
      fill="#333132"/>
  </symbol>
  <symbol id="elv-slogan-horizontal-white" viewBox="0 0 271 119.31">
    <title>elv-slogan-horizontal-white</title>
    <path
      d="M40.26 14.86a2.77 2.77 0 1 0-2-.82 2.78 2.78 0 0 0 2.02.82zM35.4 26.03a3.32 3.32 0 1 0-3.31-3.33 3.29 3.29 0 0 0 1 2.35 3.38 3.38 0 0 0 2.31.98zM30.54 37.05a3.76 3.76 0 1 0-2.68-1.11 3.76 3.76 0 0 0 2.7 1.11zM25.81 47.89a4.14 4.14 0 1 0-4.14-4.15 4.16 4.16 0 0 0 4.16 4.15zM25.33 54.39a4.44 4.44 0 1 0-4.46 4.42 4.46 4.46 0 0 0 4.46-4.42zM42.35 81.75a4.27 4.27 0 0 0-4.27 4.26 4.27 4.27 0 0 0 4.25 4.29 4.28 4.28 0 1 0 0-8.55zM37.51 92.64a3.92 3.92 0 0 0-3.9 3.9 3.89 3.89 0 0 0 3.89 3.91 3.91 3.91 0 1 0 0-7.81zM32.68 104a3.08 3.08 0 0 0-2.18 5.24 3 3 0 0 0 2.17.9 3.07 3.07 0 1 0 0-6.14zM13.74 45.79a2 2 0 0 0 2-2 2 2 0 0 0-2-2 2.035 2.035 0 1 0 0 4.07zM28 116.06a1.63 1.63 0 1 0-.36 3.24 1.63 1.63 0 1 0 .36-3.24zM45.1 3.26a1.64 1.64 0 0 0 1.63-1.63 1.62 1.62 0 0 0-.48-1.15A1.59 1.59 0 0 0 45.1 0a1.63 1.63 0 0 0 0 3.26zM11.07 52.13a3.17 3.17 0 1 0-4.51 4.44 3.12 3.12 0 0 0 2.24 1 3.18 3.18 0 0 0 3.2-3.18 3.22 3.22 0 0 0-.93-2.26zM35.14 79.62A4.17 4.17 0 1 0 31 75.44a4.17 4.17 0 0 0 4.17 4.18zM30.28 89.33a3.33 3.33 0 0 0 2.36-5.68 3.26 3.26 0 0 0-2.37-1 3.34 3.34 0 0 0 0 6.67zM27.66 96.57a2.16 2.16 0 1 0-2.17 2.14 2.16 2.16 0 0 0 2.17-2.14zM45.45 22.71a2 2 0 0 0 2 2 2 2 0 1 0-2-2zM42.6 36.43a3.14 3.14 0 1 0-2.24-.92 3.15 3.15 0 0 0 2.24.92zM33.91 43.74a4 4 0 0 0 4 4 4 4 0 1 0-4-4zM64.11 61.57a3.34 3.34 0 0 0 0 6.67 3.34 3.34 0 1 0 0-6.67zM59.21 73.25a2.16 2.16 0 0 0 0 4.31 2.16 2.16 0 1 0 0-4.31zM28.5 54.35a4.46 4.46 0 0 0 1.29 3.15 4.41 4.41 0 0 0 3.13 1.31 4.44 4.44 0 1 0-4.45-4.46zM61.3 54.39a4.45 4.45 0 1 0-4.46 4.42 4.46 4.46 0 0 0 4.46-4.42zM68.89 58.36a4 4 0 1 0-2.84-1.17 4 4 0 0 0 2.84 1.17zM4 60.92a4 4 0 0 0 0 8 4 4 0 1 0 0-8zM16.05 60.47a4.44 4.44 0 0 0-3.14 7.57A4.39 4.39 0 0 0 16 69.35a4.44 4.44 0 1 0 0-8.88zM23.69 64.9A4.4 4.4 0 0 0 25 68.04a4.45 4.45 0 0 0 3.14 1.31 4.44 4.44 0 1 0-4.45-4.45zM44.81 58.81a4.44 4.44 0 1 0-4.45-4.46 4.44 4.44 0 0 0 4.42 4.46zM40 69.35a4.44 4.44 0 1 0-4.44-4.46A4.44 4.44 0 0 0 40 69.35zM52 60.47a4.44 4.44 0 0 0-3.14 7.57A4.41 4.41 0 0 0 52 69.35a4.44 4.44 0 1 0 0-8.88zM47.17 70.99a4.44 4.44 0 0 0 0 8.88 4.44 4.44 0 1 0 0-8.88zM109.57 75.66h4.28V43.24c-.78.23-1.55.49-2.31.73l-2 .62v23.38zM138.8 75.66h4.27v-7l4.49-3.6.05.08s1.31 1.79 2.71 4.12c1.76 2.93 2 3.73 2 6.38h4.23c0-3.08-.13-4.25-2.44-7.86-1.62-2.53-3.4-5.07-3.42-5.1l-.05-.07h.06l.4-.33a10.68 10.68 0 0 0 4.49-9h-4a6.67 6.67 0 0 1-3 5.82c-3 2.35-5.38 4.4-5.4 4.42l-.16.13v-.2V43.3l-1.03.27c-1 .35-2.12.7-3.18 1v17.76c-.02 4.4-.01 8.9-.02 13.33zM197.75 44.57v31.07H202v-32.4c-.76.23-1.53.48-2.27.72zM161.25 56.26v14.38c0 2.08 1.13 4.47 3.41 5a12.74 12.74 0 0 0 2.77.32 8 8 0 0 0 4.32-1.12 8.65 8.65 0 0 1-.49-1.28 5.88 5.88 0 0 0-.75-1.67 6.68 6.68 0 0 1-4 .68c-.83-.2-1.08-1.12-1-1.92V56.16H170.16v-.69-2.2c-.71-.06-1.41-.06-1.94-.06H165.48v-5.94c-.77.12-1.54.29-2.29.46s-1.32.29-2 .41v5H159v3h2.3zM178.49 75.66v-4.52-13.93h.06a18.17 18.17 0 0 1 5.5-.7h1.17v-3.64h-1.33a20.28 20.28 0 0 0-9.69 2V75.68zM189.22 48.84a2.27 2.27 0 0 0 1.21.35 2.6 2.6 0 0 0 2.6-2.45 2.28 2.28 0 0 0-.62-1.79 2.73 2.73 0 0 0-2-.9 2.19 2.19 0 0 0-1.16.33 2.43 2.43 0 0 0-1.25 2.19 2.47 2.47 0 0 0 1.22 2.27zM188.37 53.19h4.28v22.46h-4.28zM249.11 48.84a2.24 2.24 0 0 0 1.2.35 2.6 2.6 0 0 0 2.6-2.45 2.27 2.27 0 0 0-.61-1.79 2.72 2.72 0 0 0-2-.9 2.16 2.16 0 0 0-1.15.33 2.59 2.59 0 0 0-.07 4.46zM248.26 53.19h4.28v22.46h-4.28zM94.17 75.57a16.57 16.57 0 0 0 3.46.4 9.78 9.78 0 0 0 5-1.24c2.13-1.31 2.88-3.83 3.13-5.29h-4a3.39 3.39 0 0 1-2.48 2.62 7.65 7.65 0 0 1-2 .26 4.9 4.9 0 0 1-3.78-1.51c-1.2-1.43-1.18-3.4-1.18-5.13v-.57h13.72v-.67c0-2.75 0-5.6-1.36-8a7.18 7.18 0 0 0-5.52-3.47 15 15 0 0 0-1.88-.12 9.5 9.5 0 0 0-6.62 2.32c-1.73 1.65-2.66 4.3-2.62 7.47v1.7a18.34 18.34 0 0 0 .7 6.5 7.36 7.36 0 0 0 5.43 4.73zm-1.81-13.86c0-2.39.74-4 2.06-4.8a5.82 5.82 0 0 1 2.89-.73 6.41 6.41 0 0 1 2.43.47c2 1 2.07 3.63 2.1 5.06v.1h-9.48zM133.25 69.45h-2a3.4 3.4 0 0 1-2.51 2.65 7.89 7.89 0 0 1-1.86.23 4.8 4.8 0 0 1-4-1.7c-1.07-1.42-1-3.2-1-4.93v-.58h13.72v-.67c0-2.75 0-5.6-1.36-8a7.25 7.25 0 0 0-5.55-3.43 14.64 14.64 0 0 0-1.86-.12 9.43 9.43 0 0 0-6.58 2.3c-2.36 2.21-2.67 5.64-2.65 7.49v1.9a17.48 17.48 0 0 0 .7 6.27 7.32 7.32 0 0 0 5.37 4.71 15.75 15.75 0 0 0 3.44.4 9.85 9.85 0 0 0 4.89-1.13c2.3-1.28 3.07-3.86 3.32-5.35-.79-.03-1.52-.04-2.07-.04zm-11.38-7.74c0-2.41.7-4 2-4.8a5.84 5.84 0 0 1 2.9-.73 6.55 6.55 0 0 1 2.45.47c2 1 2.07 3.63 2.1 5.06v.1h-9.47zM206.57 70.57a7.23 7.23 0 0 0 5.26 5 15 15 0 0 0 3.63.46 10.14 10.14 0 0 0 4.63-1 7.22 7.22 0 0 0 3.53-5.51h-4a3.35 3.35 0 0 1-2.48 2.62 7.78 7.78 0 0 1-2 .26 4.86 4.86 0 0 1-3.76-1.51c-1.2-1.46-1.19-3.42-1.18-5.14v-.56H224v-.69c0-2.73 0-5.55-1.36-8a7.09 7.09 0 0 0-5.51-3.47 15.07 15.07 0 0 0-1.88-.12 9.48 9.48 0 0 0-6.6 2.3c-2.19 2.08-2.65 5.22-2.65 7.49v1.89a18.6 18.6 0 0 0 .57 5.98zm3.64-8.84c0-2.44.72-4 2.06-4.8a5.75 5.75 0 0 1 2.87-.73 6.54 6.54 0 0 1 2.44.47c2 1 2.08 3.63 2.1 5.06v.1h-9.48zM233.23 75.66h4.4c2.14-4.14 2.85-5.58 4.87-10 2.72-6 2.72-8.29 2.72-12.43H241v.43c0 3.44 0 4.87-2.73 11.43l-2.84 6.19-2.84-6.18c-2.74-6.57-2.73-8-2.73-11.44v-.43h-4.22c0 4.14 0 6.42 2.72 12.43 2.02 4.42 2.73 5.91 4.87 10zM78.27 92.24c1 0 2 0 3 .08a9.39 9.39 0 0 1 2.42.41c.52.18.79.38.81.61a.55.55 0 0 1-.21.53c-.16.12-.21.23-.14.32s.19.1.35 0a1.16 1.16 0 0 0 .38-.22 1.73 1.73 0 0 0 .34-.41 1.64 1.64 0 0 0 .22-.51 1 1 0 0 0-.06-.58 1.31 1.31 0 0 0-.79-.72 10.8 10.8 0 0 0-1.18-.36 11.91 11.91 0 0 0-2-.29c-.74 0-1.49-.07-2.25-.07-1.07 0-2.09 0-3.08.12s-1.83.17-2.53.27q-.66.09-1.47.27c-.53.12-1 .25-1.52.39a11.06 11.06 0 0 0-1.28.45 1.42 1.42 0 0 0-.68.49.79.79 0 0 0-.09.47.73.73 0 0 0 .15.37.47.47 0 0 0 .3.18.4.4 0 0 0 .36-.18 5.32 5.32 0 0 1 1.81-.72 30.39 30.39 0 0 1 4.5-.79 7.49 7.49 0 0 1 .89-.07h1.1c-.16.38-.43 1-.8 1.72s-.7 1.57-1.16 2.57l-1.37 2.79c-.46.93-.86 1.76-1.21 2.49-.42.88-.76 1.63-1 2.25s-.48 1.13-.63 1.56a9.64 9.64 0 0 0-.32 1.09c-.06.29-.11.57-.15.83a1.09 1.09 0 0 0 .06.5 1.25 1.25 0 0 0 .27.44 1 1 0 0 0 .41.25.52.52 0 0 0 .44 0 2.13 2.13 0 0 0 .45-.35l.55-.53a4.84 4.84 0 0 0 .45-.51q.18-.24.15-.33h-.18l-.42.26c-.17.1-.33.19-.5.27a.65.65 0 0 1-.38.09q-.09 0 .06-.57c.1-.36.26-.83.47-1.41s.46-1.22.75-2 .62-1.47 1-2.21.78-1.61 1.26-2.52.91-1.78 1.32-2.6.77-1.52 1.06-2.11.46-1 .5-1.07a2.06 2.06 0 0 0-.11-.36 3.79 3.79 0 0 0-.32-.58zM126.69 102.62a.39.39 0 0 0-.34 0 1.08 1.08 0 0 0-.37.37 10.31 10.31 0 0 1-1.18 1.45 11.58 11.58 0 0 1-1.58 1.38 9 9 0 0 1-1.78 1 4 4 0 0 1-1.77.32.82.82 0 0 1-.69-.45 2.19 2.19 0 0 1-.25-1.12 5 5 0 0 1 .43-1.9 6.15 6.15 0 0 1 1.3-2 8.44 8.44 0 0 1 1.2-1.06 10.52 10.52 0 0 1 1.18-.74 3.49 3.49 0 0 1 .93-.36c.26 0 .43 0 .49.11s-.05.45-.38.81a8.25 8.25 0 0 1-1.22 1.07 10.91 10.91 0 0 1-1.45.89 2 2 0 0 1-1.09.3q-.24-.06-.33.09a.42.42 0 0 0 0 .35.75.75 0 0 0 .27.36.7.7 0 0 0 .57.11 4.19 4.19 0 0 0 1.14-.38 8.88 8.88 0 0 0 1.32-.77 13.1 13.1 0 0 0 1.2-.93 4 4 0 0 0 .78-.91 2 2 0 0 0 .24-.87 1.25 1.25 0 0 0-.47-1 1.36 1.36 0 0 0-1.28-.23 5.63 5.63 0 0 0-1.28.47 8 8 0 0 0-1.45.93 9.37 9.37 0 0 0-1.43 1.45 8.08 8.08 0 0 0-.72 1c-.23.26-.49.55-.79.85s-.83.85-1.3 1.3a12.76 12.76 0 0 1-1.37 1.17 6.94 6.94 0 0 1-1.27.77 1.18 1.18 0 0 1-1 .13c-.3-.13-.43-.41-.37-.85a6.59 6.59 0 0 1 .37-1.49c.2-.56.42-1.11.67-1.68a10.12 10.12 0 0 0 .51-1.42 1.07 1.07 0 0 0-.06-.72 1.13 1.13 0 0 0-.42-.47 1.56 1.56 0 0 0-.58-.21.93.93 0 0 0-.51 0 6.7 6.7 0 0 0-1.46 1 22.8 22.8 0 0 0-1.72 1.59c-.58.57-1.1 1.14-1.59 1.7a14.79 14.79 0 0 0-1 1.3c.06-.24.12-.54.19-.91s.15-.76.23-1.19.16-.87.24-1.33.17-.89.27-1.31a1.27 1.27 0 0 0 0-.75 1.71 1.71 0 0 0-.38-.61 1.14 1.14 0 0 0-.57-.31.85.85 0 0 0-.61.07 5 5 0 0 0-.89.65c-.33.29-.69.63-1.07 1s-.77.8-1.16 1.25l-1.16 1.35c-.89 1.06-1.8 2.22-2.75 3.47.49-1.09.91-2.1 1.27-3 .16-.38.31-.77.45-1.16s.27-.75.38-1.07.2-.61.26-.85a2.46 2.46 0 0 0 .09-.51.76.76 0 0 0-.2-.47.83.83 0 0 0-.16-.12.4.4 0 0 0-.1-.12.21.21 0 0 0-.27 0 5 5 0 0 1-.72.28c-.32.1-.68.19-1.06.27s-.78.14-1.19.19a9.7 9.7 0 0 1-1.16.08 3.72 3.72 0 0 1-.88-.09c-.28-.08-.51-.16-.69-.23l-.48-.19-.39-.15-.4-.13c-.16 0-.26 0-.31.13a1.17 1.17 0 0 0-.08.45 2 2 0 0 0 .08.53c0 .17.11.26.19.28a1.06 1.06 0 0 0 .58.15 1.08 1.08 0 0 0 .36 0l.12.24a1.94 1.94 0 0 1 .12.7 2.74 2.74 0 0 1-.09.66 3.56 3.56 0 0 1-.36.85 9.12 9.12 0 0 1-.94 1.2 11 11 0 0 1-1.31 1.24 7.73 7.73 0 0 1-1.37.91 1.52 1.52 0 0 1-1.06.21.56.56 0 0 1-.26-.35 2.2 2.2 0 0 1-.1-.74 5.92 5.92 0 0 1 .15-1.21 6 6 0 0 1 .51-1.41 8.48 8.48 0 0 1 1-1.63 10.37 10.37 0 0 1 1-1.1 4.44 4.44 0 0 1 .83-.65q.36-.21.48-.3a.18.18 0 0 0 .06-.23.71.71 0 0 0-.21-.26 1.06 1.06 0 0 0-.35-.18.4.4 0 0 0-.34 0 4.34 4.34 0 0 0-.67.44 5 5 0 0 1-.72.28c-.32.1-.68.19-1.06.27s-.78.14-1.19.19a9.7 9.7 0 0 1-1.16.08 3.72 3.72 0 0 1-.88-.09c-.28-.08-.51-.16-.69-.23l-.48-.19-.4-.15-.39-.13c-.16 0-.26 0-.31.13a1 1 0 0 0-.08.45 1.63 1.63 0 0 0 .08.53c.05.17.11.26.19.28a1.06 1.06 0 0 0 .58.15 1.08 1.08 0 0 0 .36 0l.12.24a1.94 1.94 0 0 1 .12.7 2.74 2.74 0 0 1-.09.66 3.56 3.56 0 0 1-.36.85 9.12 9.12 0 0 1-.94 1.2 11 11 0 0 1-1.31 1.24 7.73 7.73 0 0 1-1.37.91 1.52 1.52 0 0 1-1.06.21.56.56 0 0 1-.26-.35 2.2 2.2 0 0 1-.1-.74 5.92 5.92 0 0 1 .15-1.21 6 6 0 0 1 .51-1.41 8 8 0 0 1 1-1.63 10.37 10.37 0 0 1 1-1.1 4.44 4.44 0 0 1 .83-.65q.36-.21.48-.3a.18.18 0 0 0 .06-.23.71.71 0 0 0-.21-.26 1.06 1.06 0 0 0-.35-.18.42.42 0 0 0-.35 0 4.92 4.92 0 0 0-.66.44 9.52 9.52 0 0 0-.89.77c-.31.3-.62.63-.92 1a6.51 6.51 0 0 0-.75 1.07 8.16 8.16 0 0 0-.86 2.07 6.82 6.82 0 0 0-.23 1.58 3.55 3.55 0 0 0 .06.71 4.48 4.48 0 0 0 .12.47 1.51 1.51 0 0 0 .94.89 1.88 1.88 0 0 0 1.26 0 6.87 6.87 0 0 0 1.17-.6 10.77 10.77 0 0 0 1.35-1 14.16 14.16 0 0 0 1.3-1.27 6.58 6.58 0 0 0 1-1.37 4.25 4.25 0 0 0 .35-.83 2.64 2.64 0 0 0 .1-.71 2 2 0 0 0-.06-.5c0-.15-.08-.27-.12-.38a2 2 0 0 0-.18-.3 2.82 2.82 0 0 0 1 .12h1c.35 0 .78-.08 1.16-.14l.64-.11c-.11.11-.21.22-.31.34a6.51 6.51 0 0 0-.75 1.07 8.16 8.16 0 0 0-.86 2.07 6.82 6.82 0 0 0-.23 1.58 3.55 3.55 0 0 0 .06.71 4.48 4.48 0 0 0 .12.47 1.51 1.51 0 0 0 .94.89 1.88 1.88 0 0 0 1.26 0 6.87 6.87 0 0 0 1.17-.6 10.77 10.77 0 0 0 1.35-1 14.16 14.16 0 0 0 1.3-1.27 6.58 6.58 0 0 0 1-1.37 4.25 4.25 0 0 0 .35-.83 2.64 2.64 0 0 0 .1-.71 2 2 0 0 0-.06-.5c0-.15-.08-.27-.12-.38a2 2 0 0 0-.18-.3 2.82 2.82 0 0 0 1 .12h1c.35 0 .78-.08 1.16-.14s.74-.13 1.09-.21.41-.11.57-.16a5.93 5.93 0 0 1-.26.84c-.23.63-.49 1.29-.8 2l-.86 2a9.43 9.43 0 0 0-.52 1.42.9.9 0 0 0 .1.61 1.27 1.27 0 0 0 .44.5 1 1 0 0 0 .59.17.67.67 0 0 0 .53-.41q.15-.24.63-.9c.32-.45.71-.94 1.16-1.5s.94-1.13 1.47-1.73 1-1.16 1.52-1.66a17.75 17.75 0 0 1 1.33-1.25 1.63 1.63 0 0 1 .86-.5c.14 0 .18.2.12.62a15 15 0 0 1-.31 1.5c-.14.6-.3 1.23-.48 1.91s-.33 1.27-.45 1.79a1.34 1.34 0 0 0 0 1 .6.6 0 0 0 .52.29 1.45 1.45 0 0 0 .79-.26 1.22 1.22 0 0 0 .51-.56 3.49 3.49 0 0 1 .48-.71c.28-.35.62-.75 1-1.2l1.27-1.41c.45-.48.88-.9 1.28-1.26a6.82 6.82 0 0 1 1.07-.82c.32-.18.51-.19.59 0a1 1 0 0 1-.07.77c-.13.37-.29.81-.49 1.3s-.37 1-.54 1.54a4.81 4.81 0 0 0-.25 1.46 1.91 1.91 0 0 0 .19.89 1.21 1.21 0 0 0 .71.56 2 2 0 0 0 1.34 0 6.59 6.59 0 0 0 1.5-.79 11.79 11.79 0 0 0 1.49-1.24c.3-.28.58-.57.85-.85a4.77 4.77 0 0 0-.11 1 2.68 2.68 0 0 0 .83 2.08 2.32 2.32 0 0 0 2.22.42 6.83 6.83 0 0 0 2-.78 10.48 10.48 0 0 0 1.68-1.22 13.05 13.05 0 0 0 1.32-1.39 12.37 12.37 0 0 0 .94-1.28 1.12 1.12 0 0 0 .21-.55c.05-.23.01-.32-.08-.36zM193.65 103.89a11.9 11.9 0 0 1-1 1 14.94 14.94 0 0 1-1.4 1.2 9.08 9.08 0 0 1-1.48.92 1.45 1.45 0 0 1-1.15.17.49.49 0 0 1-.3-.56 4.42 4.42 0 0 1 .24-1.06 10.71 10.71 0 0 1 .56-1.31l.69-1.36c.24-.44.44-.84.62-1.19a4.6 4.6 0 0 0 .34-.8.63.63 0 0 0-.1-.41.92.92 0 0 0-.31-.31.73.73 0 0 0-.38-.12.24.24 0 0 0-.24.21 6.36 6.36 0 0 1-.38.86 1.22 1.22 0 0 0-.34.32c-.37.48-.85 1-1.47 1.71a25.29 25.29 0 0 1-2 1.91 15.43 15.43 0 0 1-2 1.52 3.53 3.53 0 0 1-1.77.62c-.34 0-.51-.18-.52-.53a3.67 3.67 0 0 1 .27-1.31 10.47 10.47 0 0 1 .8-1.68 16 16 0 0 1 1-1.61.89.89 0 0 0 .26-1 .6.6 0 0 0-.68-.36l-.56.06h-.62a3.17 3.17 0 0 1-.73-.07.68.68 0 0 1-.44-.26l.63-1a8.09 8.09 0 0 0 .51-.93.3.3 0 0 0 0-.33.81.81 0 0 0-.29-.29.77.77 0 0 0-.39-.11.45.45 0 0 0-.36.22l-.44.51a7.12 7.12 0 0 0-.5.66 4.6 4.6 0 0 0-.4.76 1.83 1.83 0 0 0-.17.78.49.49 0 0 0 .09.3l-.09.12a1.12 1.12 0 0 0-.33.37 14.07 14.07 0 0 1-1.69 1.94 24.86 24.86 0 0 1-2.28 2 15.91 15.91 0 0 1-2.35 1.48 3.22 3.22 0 0 1-2 .42c-.42-.08-.63-.4-.63-1a4.92 4.92 0 0 1 .28-1.5 14.7 14.7 0 0 1 .65-1.66 16.48 16.48 0 0 1 .94-1.88l.66-1.08.63-1c.23-.36.45-.7.67-1h4.16a.21.21 0 0 0 .23-.08.63.63 0 0 0 .1-.25.65.65 0 0 0 0-.31.57.57 0 0 0-.14-.24.42.42 0 0 0-.27-.1 4.57 4.57 0 0 0-.53 0h-2.85l.59-1c.21-.37.4-.72.57-1.07s.32-.68.44-1a2 2 0 0 0 .18-.68.6.6 0 0 0-.13-.47 1 1 0 0 0-.38-.28.75.75 0 0 0-.41-.06.24.24 0 0 0-.22.21c0 .06-.11.22-.25.5s-.31.6-.51 1-.43.85-.69 1.34l-.79 1.49h-1.37a7 7 0 0 1-.77 0 .28.28 0 0 0-.24.17.83.83 0 0 0 0 .77.41.41 0 0 0 .38.18 2.05 2.05 0 0 0 .54 0l.94-.1c-.36.68-.69 1.29-1 1.82s-.41.74-.53.94a1.47 1.47 0 0 0-.6.56c-.26.34-.64.79-1.12 1.35a17 17 0 0 1-1.63 1.68 14.16 14.16 0 0 1-1.91 1.48 4.86 4.86 0 0 1-1.92.77 1.87 1.87 0 0 1-1-.09 1.43 1.43 0 0 1-.61-.53 2 2 0 0 1-.31-.79 5.58 5.58 0 0 1 0-1.88l1.46-.88 1.36-.83c.41-.25.76-.47 1.06-.68a4.65 4.65 0 0 0 .55-.42.85.85 0 0 0 .25-.54 1.09 1.09 0 0 0-.1-.6.78.78 0 0 0-.37-.41.71.71 0 0 0-.62 0 9.36 9.36 0 0 0-1 .64c-.44.32-.9.69-1.38 1.1s-.94.82-1.38 1.24a6.74 6.74 0 0 0-.92 1 4.31 4.31 0 0 1-.42.28l-.51.32-.64.36 2.75-4.52c.64-.85 1.23-1.63 1.75-2.36s.85-1.23 1.24-1.84a6.25 6.25 0 0 0 .69-1.3 2.2 2.2 0 0 0 0-.86 3.86 3.86 0 0 0-.24-.89 1.36 1.36 0 0 0-.35-.52c-.12-.09-.21 0-.27.16s-.39.89-.8 1.71-.9 1.74-1.47 2.77-1.16 2.13-1.79 3.26l-.7 1.25a.27.27 0 0 0-.12 0 .93.93 0 0 0-.37.37 9.82 9.82 0 0 1-.85 1c-.36.4-.77.82-1.23 1.25s-1 .86-1.48 1.27a18 18 0 0 1-1.57 1.1 9.21 9.21 0 0 1-1.5.76 2.63 2.63 0 0 1-1.22.21.9.9 0 0 1-.69-.5 2.34 2.34 0 0 1-.24-1.13 5 5 0 0 1 .42-1.87 6.26 6.26 0 0 1 1.3-2 8.44 8.44 0 0 1 1.2-1.06 11.51 11.51 0 0 1 1.18-.74 3.41 3.41 0 0 1 .94-.36c.26 0 .42 0 .48.11s-.05.45-.38.81a8.25 8.25 0 0 1-1.22 1.07 10.3 10.3 0 0 1-1.45.89 2 2 0 0 1-1.09.3q-.24-.06-.33.09a.42.42 0 0 0 0 .35.75.75 0 0 0 .27.36.73.73 0 0 0 .58.11 4.14 4.14 0 0 0 1.13-.38 9.51 9.51 0 0 0 1.33-.77 12.92 12.92 0 0 0 1.19-.93 4 4 0 0 0 .78-.91 2 2 0 0 0 .24-.87 1.27 1.27 0 0 0-.46-1 1.39 1.39 0 0 0-1.29-.23 5.63 5.63 0 0 0-1.28.47 8.35 8.35 0 0 0-1.45.93 9.37 9.37 0 0 0-1.43 1.45 7.93 7.93 0 0 0-.61.87c-.27.31-.57.64-.91 1s-.82.84-1.27 1.28-.89.84-1.31 1.19a7.22 7.22 0 0 1-1.09 1.08 1.18 1.18 0 0 1-.83.2c-.33-.08-.49-.41-.49-1a7 7 0 0 1 .39-2c.27-.81.56-1.6.88-2.37s.79-1.81 1.3-2.77l1.41-2.32c.37-.63.72-1.25 1.08-1.86a7.77 7.77 0 0 0 .67-1.4 2.1 2.1 0 0 0 .13-.55 4.63 4.63 0 0 0 0-.51 1.75 1.75 0 0 0-.26-1c-.17-.23-.37-.17-.59.2a8.77 8.77 0 0 0-.6 1c-.28.53-.61 1.16-1 1.88s-.77 1.52-1.18 2.37-.8 1.68-1.16 2.46-.69 1.5-1 2.16a1.22 1.22 0 0 1-.07.17 1 1 0 0 0-.32.33 9.56 9.56 0 0 1-.84 1c-.37.4-.78.82-1.24 1.25s-1 .86-1.48 1.27a15.43 15.43 0 0 1-1.57 1.1 9.14 9.14 0 0 1-1.49.76 2.63 2.63 0 0 1-1.22.21.9.9 0 0 1-.7-.5 2.34 2.34 0 0 1-.24-1.13 5 5 0 0 1 .42-1.87 6.62 6.62 0 0 1 1.3-2 8.51 8.51 0 0 1 1.21-1.06 9.69 9.69 0 0 1 1.18-.74 3.49 3.49 0 0 1 .93-.36c.26 0 .42 0 .48.11s0 .45-.37.81a8.36 8.36 0 0 1-1.23 1.07 10.22 10.22 0 0 1-1.44.89 2 2 0 0 1-1.09.3q-.24-.06-.33.09a.42.42 0 0 0 0 .35.75.75 0 0 0 .27.36.7.7 0 0 0 .57.11 4.14 4.14 0 0 0 1.13-.38 8.49 8.49 0 0 0 1.33-.77 12.92 12.92 0 0 0 1.19-.93 3.83 3.83 0 0 0 .79-.91 2 2 0 0 0 .24-.87 1.28 1.28 0 0 0-.47-1 1.37 1.37 0 0 0-1.28-.23 5.63 5.63 0 0 0-1.28.47 7.66 7.66 0 0 0-1.45.93 9.88 9.88 0 0 0-1.44 1.45 9.51 9.51 0 0 0-1.23 2 5.1 5.1 0 0 0-.48 2.08 3.26 3.26 0 0 0 .22 1.24 2.44 2.44 0 0 0 .63.9 2.13 2.13 0 0 0 1 .48 2.73 2.73 0 0 0 1.2 0 7.24 7.24 0 0 0 2.2-1 17.66 17.66 0 0 0 2.13-1.63 20 20 0 0 0 1.83-1.86l.32-.38c-.08.32-.16.67-.25 1a8.16 8.16 0 0 0-.22 1.84 2.72 2.72 0 0 0 .34 1.44 1.21 1.21 0 0 0 1.26.46 2.35 2.35 0 0 0 1.08-.45 13.29 13.29 0 0 0 1.34-1c.48-.41.95-.87 1.42-1.36.22-.22.42-.44.62-.65a4.34 4.34 0 0 0-.12 1 3.26 3.26 0 0 0 .23 1.24 2.44 2.44 0 0 0 .63.9 2.09 2.09 0 0 0 .95.48 2.77 2.77 0 0 0 1.21 0 7.35 7.35 0 0 0 2.2-1 19.39 19.39 0 0 0 2.13-1.63q.62-.56 1.17-1.14c-.28.48-.53.92-.77 1.32-.42.72-.7 1.18-.84 1.36a.54.54 0 0 0-.06.45 1.47 1.47 0 0 0 .21.53.59.59 0 0 0 .35.27c.13 0 .25-.08.37-.32l.41-.74c.15-.27.3-.54.44-.83l.51-1 .61-.33a5.86 5.86 0 0 0 .67-.4l.83-.51a4.48 4.48 0 0 0 0 .95 3.82 3.82 0 0 0 .28 1.25 2.88 2.88 0 0 0 .75 1.11 2 2 0 0 0 1.42.46 4.16 4.16 0 0 0 1.69-.37 9.4 9.4 0 0 0 1.63-1 11.88 11.88 0 0 0 1.49-1.28c.47-.47.89-.92 1.27-1.36l.33-.38a10.75 10.75 0 0 0-.44 1.32 5.87 5.87 0 0 0-.21 1.49 2.31 2.31 0 0 0 .32 1.24 1.47 1.47 0 0 0 1.1.63 3.78 3.78 0 0 0 1.79-.21 8.66 8.66 0 0 0 1.89-.92 14.21 14.21 0 0 0 1.82-1.37c.52-.45 1-.9 1.43-1.33a.37.37 0 0 0 .25-.15 4.4 4.4 0 0 1 .36-.39c.18-.18.39-.4.62-.66l.71-.83c.24-.3.46-.59.66-.89a3.81 3.81 0 0 0 1.3.27 2.51 2.51 0 0 0 1.06-.12 7.57 7.57 0 0 0-.47.71c-.23.37-.47.81-.72 1.31a13.18 13.18 0 0 0-.68 1.58 4.34 4.34 0 0 0-.31 1.53 1.66 1.66 0 0 0 .25.93 1.3 1.3 0 0 0 .84.54 2.5 2.5 0 0 0 1.4-.19 7.86 7.86 0 0 0 1.66-.91 18.23 18.23 0 0 0 1.74-1.35c.58-.52 1.12-1 1.61-1.53.2-.2.38-.39.55-.58-.18.41-.35.82-.5 1.25a5.26 5.26 0 0 0-.36 1.78 1.68 1.68 0 0 0 .25 1 1.32 1.32 0 0 0 .89.49 2.7 2.7 0 0 0 1.77-.34 10 10 0 0 0 1.73-1.19 14.48 14.48 0 0 0 1.42-1.38c.4-.45.66-.76.78-.92q.38-.51.15-.75t-.65.35zM191.66 97.16a1.85 1.85 0 0 0 .74-.36 1 1 0 0 0 .44-.82.65.65 0 0 0-.14-.43.92.92 0 0 0-.35-.26 1.07 1.07 0 0 0-.43-.09 2 2 0 0 0-.38 0 .84.84 0 0 0-.45.53 2.16 2.16 0 0 0-.15.74q0 .78.72.69zM218.82 95.08c.1-.34.23-.82.39-1.42a6.93 6.93 0 0 0 .24-1.78 3.62 3.62 0 0 0-.15-1.06 1.25 1.25 0 0 0-.54-.72 3.69 3.69 0 0 0-2-.39 13.53 13.53 0 0 0-2.76.33 18.25 18.25 0 0 0-3.06.94 16.13 16.13 0 0 0-2 1 10 10 0 0 0-1.66 1.16 5.41 5.41 0 0 0-1.15 1.37 2.67 2.67 0 0 0-.36 1.55 2.42 2.42 0 0 0 .71 1.56 11.64 11.64 0 0 0 1.66 1.45q1 .7 2.1 1.41a24.76 24.76 0 0 1 2 1.44 7.7 7.7 0 0 1 1.51 1.51 2.19 2.19 0 0 1 .47 1.66 1.7 1.7 0 0 1-.53 1 3.85 3.85 0 0 1-1.24.8 8.55 8.55 0 0 1-1.78.52 10.54 10.54 0 0 1-2.15.2 12.26 12.26 0 0 1-2.16-.18 6.79 6.79 0 0 1-1.73-.53 2.47 2.47 0 0 1-1-.83 1.11 1.11 0 0 1-.07-1.08c.1-.27.06-.45-.11-.56s-.35 0-.55.34a2.24 2.24 0 0 0-.34 1.15 1.72 1.72 0 0 0 .55 1.27 4.22 4.22 0 0 0 1.37.89 8.74 8.74 0 0 0 1.85.53 11.61 11.61 0 0 0 2 .18 14.48 14.48 0 0 0 2.8-.26 9 9 0 0 0 2.25-.72 4.8 4.8 0 0 0 1.52-1.15 2.79 2.79 0 0 0 .67-1.52 3.27 3.27 0 0 0-.44-2.06 7.34 7.34 0 0 0-1.46-1.73 17.57 17.57 0 0 0-2-1.51l-2.1-1.37a15.31 15.31 0 0 1-1.7-1.3 2.14 2.14 0 0 1-.8-1.33 1.56 1.56 0 0 1 .41-1.34 5.53 5.53 0 0 1 1.28-1.1 10.86 10.86 0 0 1 1.54-.82q.78-.33 1.2-.48l1-.32c.44-.13.91-.25 1.42-.37s1-.22 1.56-.3a9.2 9.2 0 0 1 1.38-.12 2.28 2.28 0 0 1 .88.15.64.64 0 0 1 .33.34 1.35 1.35 0 0 1 .09.5 2.83 2.83 0 0 1-.07.63 4 4 0 0 1-.19.64l-.19.56a3.13 3.13 0 0 0-.12.4.87.87 0 0 0 0 .62 1 1 0 0 0 .37.44.73.73 0 0 0 .46.14.38.38 0 0 0 .4-.33zM222.93 95.2a1.9 1.9 0 0 0-.37 0 .85.85 0 0 0-.46.53 2.16 2.16 0 0 0-.15.74c0 .5.24.72.73.66a1.92 1.92 0 0 0 .74-.36 1 1 0 0 0 .43-.82.65.65 0 0 0-.13-.43.92.92 0 0 0-.35-.26 1.12 1.12 0 0 0-.44-.06zM268.3 97.16a1.92 1.92 0 0 0 .74-.36 1 1 0 0 0 .43-.82.65.65 0 0 0-.13-.43.92.92 0 0 0-.35-.26 1.12 1.12 0 0 0-.44-.09 1.9 1.9 0 0 0-.37 0 .85.85 0 0 0-.46.53 2.16 2.16 0 0 0-.15.74c0 .53.25.75.73.69zM270.92 103.62q-.21-.24-.63.27a11.9 11.9 0 0 1-1 1 14.94 14.94 0 0 1-1.4 1.2 9.08 9.08 0 0 1-1.48.92 1.45 1.45 0 0 1-1.15.17.49.49 0 0 1-.3-.56 4.42 4.42 0 0 1 .24-1.06 10.71 10.71 0 0 1 .56-1.31l.69-1.36.62-1.19a3.75 3.75 0 0 0 .33-.8.62.62 0 0 0-.09-.41.87.87 0 0 0-.32-.31.7.7 0 0 0-.37-.12.24.24 0 0 0-.24.21 5.87 5.87 0 0 1-.38.85h-.06a1.09 1.09 0 0 0-.41.4c-.2.28-.46.6-.78 1s-.68.76-1.07 1.16-.81.79-1.26 1.17a14.17 14.17 0 0 1-1.31 1 6.45 6.45 0 0 1-1.22.66 1.65 1.65 0 0 1-1 .11c-.28-.07-.42-.32-.42-.76a4.46 4.46 0 0 1 .24-1.3c.16-.5.35-1 .56-1.54s.42-1 .62-1.47a7.14 7.14 0 0 0 .39-1.09 1.23 1.23 0 0 0 0-.57 1.56 1.56 0 0 0-.29-.61 1.19 1.19 0 0 0-.56-.39 1.33 1.33 0 0 0-.83 0 3.36 3.36 0 0 0-.92.54c-.33.27-.68.58-1 .94s-.73.76-1.1 1.21-.73.88-1.07 1.32c-.81 1-1.63 2.21-2.48 3.47.41-1 .78-2 1.12-2.8l.42-1.09.39-1c.13-.31.22-.57.29-.79s.12-.38.14-.48a.56.56 0 0 0-.06-.45.66.66 0 0 0-.33-.19.43.43 0 0 0-.57.34 6.37 6.37 0 0 1-.18.62c-.08.23-.18.48-.3.76v.09a1 1 0 0 0-.14.19 8.09 8.09 0 0 1-.54.66c-.29.32-.62.68-1 1.07s-.8.81-1.25 1.24-.9.83-1.33 1.19a10 10 0 0 1-1.21.89 1.9 1.9 0 0 1-.92.35c-.32 0-.48-.25-.48-.76a5.18 5.18 0 0 1 .24-1.4c.16-.55.36-1.12.59-1.69s.46-1.11.69-1.6.42-.86.56-1.1a1.16 1.16 0 0 0 .14-.62 1.2 1.2 0 0 0-.17-.59.57.57 0 0 0-.41-.28.79.79 0 0 0-.61.25 10 10 0 0 0-.85.89l-1.4 1.59-1.71 1.91c-.59.64-1.16 1.23-1.71 1.76a13.44 13.44 0 0 1-1.44 1.24c-.43.33-.74.46-.92.4s-.4-.3-.36-.67a4.57 4.57 0 0 1 .39-1.29 12.78 12.78 0 0 1 .85-1.62c.34-.57.67-1.11 1-1.61s.61-.94.86-1.3a3.69 3.69 0 0 0 .39-.66 1.63 1.63 0 0 0 0-.76 1.38 1.38 0 0 0-.27-.57.56.56 0 0 0-.37-.23c-.12 0-.19.08-.21.26a7 7 0 0 1-.74 1.55c-.19.34-.39.68-.6 1h-.12a1.09 1.09 0 0 0-.41.4c-.2.28-.46.6-.78 1s-.68.76-1.07 1.16-.81.79-1.25 1.17a15.72 15.72 0 0 1-1.32 1 6.45 6.45 0 0 1-1.22.66 1.65 1.65 0 0 1-1 .11c-.28-.07-.42-.32-.42-.76a4.46 4.46 0 0 1 .24-1.3c.16-.5.35-1 .56-1.54s.42-1 .62-1.47a7.14 7.14 0 0 0 .39-1.09 1.23 1.23 0 0 0 0-.57 1.56 1.56 0 0 0-.29-.61 1.19 1.19 0 0 0-.56-.39 1.33 1.33 0 0 0-.83 0 3.36 3.36 0 0 0-.92.54c-.33.27-.68.58-1 .94s-.73.76-1.1 1.21-.73.88-1.07 1.32c-.81 1-1.63 2.21-2.47 3.47.4-1 .77-2 1.11-2.8l.42-1.09c.14-.36.28-.69.4-1s.21-.57.28-.79.12-.38.14-.48a.56.56 0 0 0-.06-.45.7.7 0 0 0-.27-.25.47.47 0 0 0-.35 0 .45.45 0 0 0-.23.32 6.37 6.37 0 0 1-.18.62c-.08.23-.18.48-.3.76v.1a28.282 28.282 0 0 1-1.84 2.06c-.44.45-.91.91-1.4 1.37s-1 .88-1.42 1.24a6.92 6.92 0 0 1-1.24.82c-.37.18-.65.21-.83.09s-.26-.3-.25-.61a4.45 4.45 0 0 1 .18-1 10.08 10.08 0 0 1 .45-1.25c.19-.44.38-.87.57-1.28l.52-1.13a4.54 4.54 0 0 0 .28-.79.62.62 0 0 0-.09-.41.87.87 0 0 0-.32-.31.7.7 0 0 0-.37-.12.24.24 0 0 0-.24.21c-.06.2-.21.56-.43 1.07s-.46 1.09-.72 1.73-.49 1.31-.69 2a6.05 6.05 0 0 0-.31 1.77 1.93 1.93 0 0 0 .18.87 1 1 0 0 0 .61.48 2.08 2.08 0 0 0 1.42-.16 7.37 7.37 0 0 0 1.61-1 19.64 19.64 0 0 0 1.65-1.46c.54-.54 1-1.07 1.47-1.57l.31-.35c-.11.26-.21.52-.31.77-.2.53-.38 1-.55 1.41l-.35.83a.83.83 0 0 0 0 .67 1 1 0 0 0 .41.49 1.19 1.19 0 0 0 .56.18.4.4 0 0 0 .41-.23 9.23 9.23 0 0 1 .61-.95c.34-.47.72-1 1.17-1.6s.92-1.21 1.45-1.85 1-1.23 1.5-1.75a15.47 15.47 0 0 1 1.32-1.29c.39-.33.68-.47.89-.43s.19.28 0 .72-.35 1-.6 1.61-.5 1.31-.73 2a6.14 6.14 0 0 0-.34 1.87 1.93 1.93 0 0 0 .22 1 1.08 1.08 0 0 0 .83.48 3.6 3.6 0 0 0 2.37-.51 12.1 12.1 0 0 0 2.31-1.71c.44-.41.84-.82 1.22-1.23l-.15.28a4.68 4.68 0 0 0-.56 1.72 2.18 2.18 0 0 0 .44 1.54 1.41 1.41 0 0 0 1.1.54 1.85 1.85 0 0 0 .94-.27 5.68 5.68 0 0 0 .83-.63c.31-.28.64-.6 1-1s.72-.73 1.09-1.13l1.1-1.21 2.56-3a17.17 17.17 0 0 0-.87 1.93 16 16 0 0 0-.59 1.77 6.73 6.73 0 0 0-.26 1.73 2.47 2.47 0 0 0 .21 1.06 1.14 1.14 0 0 0 .76.6 1.81 1.81 0 0 0 1.24-.18 8 8 0 0 0 1.52-1 16.56 16.56 0 0 0 1.58-1.39c.53-.51 1-1 1.47-1.52a3.33 3.33 0 0 1 .25-.28l-.27.67c-.2.53-.38 1-.56 1.41l-.34.83a.83.83 0 0 0 0 .67 1 1 0 0 0 .41.49 1.19 1.19 0 0 0 .56.18.39.39 0 0 0 .4-.23 10 10 0 0 1 .62-.95c.33-.47.72-1 1.16-1.6s.93-1.21 1.45-1.85 1-1.23 1.51-1.75a15.51 15.51 0 0 1 1.31-1.29c.4-.33.69-.47.89-.43s.2.28.05.72-.35 1-.6 1.61-.5 1.31-.73 2a6.19 6.19 0 0 0-.35 1.87 1.93 1.93 0 0 0 .23 1 1.08 1.08 0 0 0 .83.48 3.63 3.63 0 0 0 2.37-.51 12.76 12.76 0 0 0 2.31-1.71 17.25 17.25 0 0 0 1.63-1.71c-.19.44-.38.88-.55 1.34a5.26 5.26 0 0 0-.36 1.78 1.68 1.68 0 0 0 .26 1 1.32 1.32 0 0 0 .89.49 2.67 2.67 0 0 0 1.76-.34 9.74 9.74 0 0 0 1.74-1.19 15.69 15.69 0 0 0 1.42-1.38c.4-.45.66-.76.78-.92q.2-.39-.01-.63z"
      fill="#fff"/>
  </symbol>
  <symbol id="enefit-color" viewBox="0 0 145 75">
    <title>enefit-color</title>
    <path
      d="M88.09 43.76h5.08v4h-5.08zm23.14 27.94c.43-.14.91-.29 1.42-.43v-2.7a6.22 6.22 0 0 0-.85.13c-.51.08-1.21.19-2.1.3a22.5 22.5 0 0 1-2.57.14c-2.45 0-3.67-1.5-3.67-4.53V53.06h8.29v-2.82h-8.29v-3.46h-3.64L99 50.24h-2.63v2.82H99v11.48a9.29 9.29 0 0 0 .84 4.34 6.7 6.7 0 0 0 1.87 2.34 4.9 4.9 0 0 0 2 1 9.36 9.36 0 0 0 1.3.18c.8 0 2.64 0 3.25-.08a15.66 15.66 0 0 0 1.61-.25c.47-.1.93-.23 1.36-.34M1.6 45.56V72h19.06v-3.51h-14l.1-8.55h12.29v-3.1H6.74v-7.68h13.62v-3.6zM69.51 68a13.52 13.52 0 0 1-1.68.38c-.77.13-1.63.27-2.61.4s-2 .25-3.16.34-2.21.13-3.26.13a6.11 6.11 0 0 1-1.94-.29 4.06 4.06 0 0 1-1.17-.78 3.51 3.51 0 0 1-.75-1.18 3.2 3.2 0 0 1-.28-1.32v-2.79h13.79a1.63 1.63 0 0 0 1.27-.57 2.17 2.17 0 0 0 .53-1.58v-4.35a7.15 7.15 0 0 0-.32-2.1 5 5 0 0 0-1.09-2 5.71 5.71 0 0 0-2.13-1.46 9.05 9.05 0 0 0-3.42-.56h-5.73a8.53 8.53 0 0 0-3.37.61 6.28 6.28 0 0 0-2.28 1.63 7.09 7.09 0 0 0-1.32 2.35 9.26 9.26 0 0 0-.42 2.8v6.92a8.72 8.72 0 0 0 .89 4.32 7 7 0 0 0 2 2.36 5.5 5.5 0 0 0 2.19 1 12.62 12.62 0 0 0 1.37.17c1.75 0 4.9-.08 6.29-.24a31.94 31.94 0 0 0 3.55-.57c1-.2 2-.47 3-.8zm-3.4-7.71H54.66v-3.86a3.45 3.45 0 0 1 .77-2.32 3 3 0 0 1 2.46-.9h5a3 3 0 0 1 2.45.9 3.4 3.4 0 0 1 .77 2.32zM46.12 72V57.66a11.81 11.81 0 0 0-.63-4.32A5.66 5.66 0 0 0 43.92 51a4.58 4.58 0 0 0-2-1 11.94 11.94 0 0 0-2.09-.19 25.85 25.85 0 0 0-3.92.3c-1.17.22-2.24.46-3.22.72s-2.14.61-3.46 1l-.68-1.62h-3.68V72h4.51V54.42c1.42-.29 2.64-.53 3.64-.69l3-.47a15 15 0 0 1 2.17-.26 3 3 0 0 1 1.78.45 3 3 0 0 1 1.11 1.13 3.91 3.91 0 0 1 .45 1.45 13 13 0 0 1 .09 1.46V72zm42.25 0h4.48V50.3h-4.48zm-3.09-25.87v-2.45a35.6 35.6 0 0 0-5-.32 9.12 9.12 0 0 0-2.29.3 4.23 4.23 0 0 0-1.5.91 5 5 0 0 0-1.06 1.59 6 6 0 0 0-.4 2.35v1.79h-2.2v2.81H75v18.81h4.43V53.11H84V50.3h-4.58v-2.47a2.78 2.78 0 0 1 .14-.42 2 2 0 0 1 .81-.83 4 4 0 0 1 2.14-.45z"
      fill="#374454"/>
    <path
      d="M100.69 31.18v-.33c-.06-1.22-.35-3.57-.35-6.38v-.53c.11-5.77 10.56-12.4 23.23-15.93l.07-.23c-.21-.47-.56-1.28-.8-1.69-.13-.23-.23-.54-.47-.66a3.79 3.79 0 0 0-1 .22 50.77 50.77 0 0 0-20.62 11.91c-4 3.7-7.15 7.46-11 10.82 0 0-6.2 6.32-10.36 6.59a3.48 3.48 0 0 1-1.75-.32c-1.46-.65-4-3.53-5.14-5.61a16.21 16.21 0 0 0-4 4.57c-.07.13-.21.44-.3.58s-.83.36-1.08.15v-.38c.41-2.43.56-2.94.56-2.94A15.53 15.53 0 0 1 71 26l-.15-.41a18.33 18.33 0 0 1-1-6.56c.29-5.27 2-9 4.36-10.44 0 0 2.88-1.68 5-2.82a2.75 2.75 0 0 1 1.86-.49c1.2.07 3 1.08 5.53 3.22s5 4.57 5.39 6.46a2.38 2.38 0 0 1-.14 1.5l-2.77 4.15c-.62.94-4 1.64-9.06 4.11l-.6.27a14.69 14.69 0 0 0 1.8 2.06 1.89 1.89 0 0 0 .92.57c1.18.34 3.13-.56 7.48-4.72 1.25-1.2 6.08-6.05 9.61-9 0 0 9.34-8.47 18.4-11a5.74 5.74 0 0 1 2.73-.18 56.12 56.12 0 0 1 5.66 2 5.87 5.87 0 0 1 2.4 2.06 97.4 97.4 0 0 1 12-1.64h.31l2 .74c.78.29.8.55.43.66a98 98 0 0 0-13.3 2.94c1.41 3.49 2 6.51 2 12.19.08 7.87-3.14 20.53-15.76 20.71-5.33.08-11.66-5.24-14.72-9.55a5.47 5.47 0 0 1-.72-1.59M114 35h.17c8.18.37 11-8.95 11.19-15.63a43.19 43.19 0 0 0-.77-8.25c-12 4.68-19.56 10.54-22.06 15.66 2.87 4.27 7.53 8 11.45 8.2zM77.55 21.54a97.46 97.46 0 0 1 10-3.83l.05-.06a19.13 19.13 0 0 0-4.19-4.32 51 51 0 0 0-5.64-3.92h-.05a16.24 16.24 0 0 0-1.23 5.43 15.56 15.56 0 0 0 1 6.73"
      fill="#34b233"/>
  </symbol>
  <symbol id="enefit-horizontal-color" viewBox="0 0 215 50">
    <title>enefit-horizontal-color</title>
    <path
      d="M163.73 35.1l-.06-.37c-.07-1.43-.4-4.14-.4-7.39v-.62c.13-6.67 12.22-14.34 26.88-18.43l.09-.25c-.25-.55-.66-1.49-.93-2-.15-.27-.27-.63-.55-.76a4 4 0 0 0-1.2.24A59 59 0 0 0 163.7 19.3c-4.61 4.32-8.3 8.7-12.7 12.57 0 0-7.17 7.31-12 7.62a4 4 0 0 1-2-.37c-1.69-.75-4.6-4.08-5.95-6.49a18.59 18.59 0 0 0-4.67 5.29c-.09.15-.25.51-.35.67s-1 .42-1.25.17v-.44c.48-2.81.65-3.39.65-3.39a17.83 17.83 0 0 1 4-5.8l-.18-.47a21.26 21.26 0 0 1-1.11-7.59c.34-6.09 2.33-10.45 5-12.08 0 0 3.33-1.94 5.81-3.27a3.23 3.23 0 0 1 2.15-.57c1.39.09 3.46 1.25 6.4 3.73s5.8 5.29 6.23 7.48a2.69 2.69 0 0 1-.16 1.73l-3.2 4.81c-.73 1.08-4.64 1.9-10.49 4.75l-.69.31a17 17 0 0 0 2.08 2.39 2.08 2.08 0 0 0 1.07.66c1.36.4 3.61-.65 8.66-5.46 1.44-1.38 7-7 11.11-10.44 0 0 10.8-9.79 21.3-12.78a6.61 6.61 0 0 1 3.15-.21 65.34 65.34 0 0 1 6.55 2.32 6.84 6.84 0 0 1 2.78 2.39 108.9 108.9 0 0 1 13.85-1.9h.36l2.27.86c.9.34.92.64.49.76a113.21 113.21 0 0 0-15.39 3.4c1.63 4.05 2.28 7.54 2.34 14.12.1 9.1-3.63 23.75-18.23 24-6.17.08-13.49-6.08-17-11a6.05 6.05 0 0 1-.83-1.85m15.42 4.41h.2c9.46.43 12.72-10.36 13-18.09a49.75 49.75 0 0 0-.9-9.55c-13.94 5.32-22.7 12.09-25.59 18.01 3.33 4.95 8.71 9.23 13.26 9.5zM137 24a112 112 0 0 1 11.59-4.42l.07-.08a22.12 22.12 0 0 0-4.85-5 57.84 57.84 0 0 0-6.53-4.53h-.06a18.63 18.63 0 0 0-1.43 6.27A18.21 18.21 0 0 0 137 24"
      fill="#34b233"/>
    <path
      d="M88.42 12.19h5.09v4h-5.09zm23.16 28l1.42-.44V37a6.46 6.46 0 0 0-.85.13c-.51.09-1.2.19-2.09.31a22.79 22.79 0 0 1-2.58.14q-3.67 0-3.68-4.54V21.51h8.3v-2.83h-8.3v-3.46h-3.64l-.86 3.46h-2.6v2.83h2.6V33a9.49 9.49 0 0 0 .84 4.35 6.7 6.7 0 0 0 1.86 2.33 4.94 4.94 0 0 0 2 1 9.17 9.17 0 0 0 1.3.18c.8 0 2.64 0 3.25-.09a13.13 13.13 0 0 0 1.61-.24c.47-.1.93-.23 1.36-.34M1.85 14v26.44h19.07V37H6.9l.1-8.61h12.32v-3.1H7V17.6h13.62V14zm64.57 14.7H55v-3.83a3.45 3.45 0 0 1 .77-2.32 3.05 3.05 0 0 1 2.47-.89h5a3 3 0 0 1 2.45.89 3.46 3.46 0 0 1 .77 2.33zm3.4 7.72a12.21 12.21 0 0 1-1.68.37c-.76.13-1.63.28-2.61.41s-2.05.24-3.16.33-2.21.13-3.26.13a6.47 6.47 0 0 1-2-.28 4.09 4.09 0 0 1-1.11-.79 3.51 3.51 0 0 1-.75-1.11 3.18 3.18 0 0 1-.25-1.31v-2.83h13.8a1.66 1.66 0 0 0 1.2-.57 2.18 2.18 0 0 0 .52-1.58v-4.35a7.49 7.49 0 0 0-.31-2.11 5.14 5.14 0 0 0-1.1-2A5.71 5.71 0 0 0 67 19.3a9.05 9.05 0 0 0-3.42-.56h-5.72a8.53 8.53 0 0 0-3.37.61A6.28 6.28 0 0 0 52.21 21a6.92 6.92 0 0 0-1.32 2.35 9 9 0 0 0-.42 2.81v6.92a8.73 8.73 0 0 0 .89 4.33 7 7 0 0 0 2 2.36 5.5 5.5 0 0 0 2.19 1 12.62 12.62 0 0 0 1.37.17c1.75 0 4.9-.08 6.3-.24a34.47 34.47 0 0 0 3.55-.57 30.77 30.77 0 0 0 3-.8zm-23.41 4V26.11a11.87 11.87 0 0 0-.63-4.33 5.66 5.66 0 0 0-1.57-2.36 4.58 4.58 0 0 0-2-1 11.94 11.94 0 0 0-2.09-.19 25.88 25.88 0 0 0-3.93.3c-1.17.21-2.24.46-3.23.72s-2.14.61-3.46 1l-.67-1.62h-3.69v21.81h4.51V22.86c1.43-.29 2.65-.52 3.65-.69l3-.47a14.93 14.93 0 0 1 2.18-.23 3.05 3.05 0 0 1 1.78.45 2.9 2.9 0 0 1 1.1 1.13 3.8 3.8 0 0 1 .46 1.45 13 13 0 0 1 .09 1.5v14.44zm42.29 0h4.49V18.74H88.7zm-3.09-25.85v-2.46a37.42 37.42 0 0 0-5-.32 9.12 9.12 0 0 0-2.29.3 4.12 4.12 0 0 0-1.5.92 4.81 4.81 0 0 0-1.06 1.58A6.12 6.12 0 0 0 75.3 17v1.78h-2.19v2.82h2.19v18.78h4.45V21.55h4.57v-2.82h-4.57v-2.46a2.58 2.58 0 0 1 .13-.42 2 2 0 0 1 .81-.83 3.94 3.94 0 0 1 2.14-.45z"
      fill="#374454"/>
  </symbol>
  <symbol id="enefit-horizontal-white" viewBox="0 0 215 50">
    <title>enefit-horizontal-white</title>
    <path
      d="M163.73 35.1l-.06-.37c-.07-1.43-.4-4.14-.4-7.39v-.62c.13-6.67 12.22-14.34 26.88-18.43l.09-.25c-.25-.55-.66-1.49-.93-2-.15-.27-.27-.63-.55-.76a4 4 0 0 0-1.2.24A59 59 0 0 0 163.7 19.3c-4.61 4.32-8.3 8.7-12.7 12.57 0 0-7.17 7.31-12 7.62a4 4 0 0 1-2-.37c-1.69-.75-4.6-4.08-5.95-6.49a18.59 18.59 0 0 0-4.67 5.29c-.09.15-.25.51-.35.67s-1 .42-1.25.17v-.44c.48-2.81.65-3.39.65-3.39a17.83 17.83 0 0 1 4-5.8l-.18-.47a21.26 21.26 0 0 1-1.11-7.59c.34-6.09 2.33-10.45 5-12.08 0 0 3.33-1.94 5.81-3.27a3.23 3.23 0 0 1 2.15-.57c1.39.09 3.46 1.25 6.4 3.73s5.8 5.29 6.23 7.48a2.69 2.69 0 0 1-.16 1.73l-3.2 4.81c-.73 1.08-4.64 1.9-10.49 4.75l-.69.31a17 17 0 0 0 2.08 2.39 2.08 2.08 0 0 0 1.07.66c1.36.4 3.61-.65 8.66-5.46 1.44-1.38 7-7 11.11-10.44 0 0 10.8-9.79 21.3-12.78a6.61 6.61 0 0 1 3.15-.21 65.34 65.34 0 0 1 6.55 2.32 6.84 6.84 0 0 1 2.78 2.39 108.9 108.9 0 0 1 13.85-1.9h.36l2.27.86c.9.34.92.64.49.76a113.21 113.21 0 0 0-15.39 3.4c1.63 4.05 2.28 7.54 2.34 14.12.1 9.1-3.63 23.75-18.23 24-6.17.08-13.49-6.08-17-11a6.05 6.05 0 0 1-.83-1.85m15.42 4.41h.2c9.46.43 12.72-10.36 13-18.09a49.75 49.75 0 0 0-.9-9.55c-13.94 5.32-22.7 12.09-25.59 18.01 3.33 4.95 8.71 9.23 13.26 9.5zM137 24a112 112 0 0 1 11.59-4.42l.07-.08a22.12 22.12 0 0 0-4.85-5 57.84 57.84 0 0 0-6.53-4.53h-.06a18.63 18.63 0 0 0-1.43 6.27A18.21 18.21 0 0 0 137 24M88.42 12.19h5.09v4h-5.09zm23.16 28l1.42-.44V37a6.46 6.46 0 0 0-.85.13c-.51.09-1.2.19-2.09.31a22.79 22.79 0 0 1-2.58.14q-3.67 0-3.68-4.54V21.51h8.3v-2.83h-8.3v-3.46h-3.64l-.86 3.46h-2.6v2.83h2.6V33a9.49 9.49 0 0 0 .84 4.35 6.7 6.7 0 0 0 1.86 2.33 4.94 4.94 0 0 0 2 1 9.17 9.17 0 0 0 1.3.18c.8 0 2.64 0 3.25-.09a13.13 13.13 0 0 0 1.61-.24c.47-.1.93-.23 1.36-.34M1.85 14v26.44h19.07V37H6.9l.1-8.61h12.32v-3.1H7V17.6h13.62V14zm64.57 14.7H55v-3.83a3.45 3.45 0 0 1 .77-2.32 3.05 3.05 0 0 1 2.47-.89h5a3 3 0 0 1 2.45.89 3.46 3.46 0 0 1 .77 2.33zm3.4 7.72a12.21 12.21 0 0 1-1.68.37c-.76.13-1.63.28-2.61.41s-2.05.24-3.16.33-2.21.13-3.26.13a6.47 6.47 0 0 1-2-.28 4.09 4.09 0 0 1-1.11-.79 3.51 3.51 0 0 1-.75-1.11 3.18 3.18 0 0 1-.25-1.31v-2.83h13.8a1.66 1.66 0 0 0 1.2-.57 2.18 2.18 0 0 0 .52-1.58v-4.35a7.49 7.49 0 0 0-.31-2.11 5.14 5.14 0 0 0-1.1-2A5.71 5.71 0 0 0 67 19.3a9.05 9.05 0 0 0-3.42-.56h-5.72a8.53 8.53 0 0 0-3.37.61A6.28 6.28 0 0 0 52.21 21a6.92 6.92 0 0 0-1.32 2.35 9 9 0 0 0-.42 2.81v6.92a8.73 8.73 0 0 0 .89 4.33 7 7 0 0 0 2 2.36 5.5 5.5 0 0 0 2.19 1 12.62 12.62 0 0 0 1.37.17c1.75 0 4.9-.08 6.3-.24a34.47 34.47 0 0 0 3.55-.57 30.77 30.77 0 0 0 3-.8zm-23.41 4V26.11a11.87 11.87 0 0 0-.63-4.33 5.66 5.66 0 0 0-1.57-2.36 4.58 4.58 0 0 0-2-1 11.94 11.94 0 0 0-2.09-.19 25.88 25.88 0 0 0-3.93.3c-1.17.21-2.24.46-3.23.72s-2.14.61-3.46 1l-.67-1.62h-3.69v21.81h4.51V22.86c1.43-.29 2.65-.52 3.65-.69l3-.47a14.93 14.93 0 0 1 2.18-.23 3.05 3.05 0 0 1 1.78.45 2.9 2.9 0 0 1 1.1 1.13 3.8 3.8 0 0 1 .46 1.45 13 13 0 0 1 .09 1.5v14.44zm42.29 0h4.49V18.74H88.7zm-3.09-25.85v-2.46a37.42 37.42 0 0 0-5-.32 9.12 9.12 0 0 0-2.29.3 4.12 4.12 0 0 0-1.5.92 4.81 4.81 0 0 0-1.06 1.58A6.12 6.12 0 0 0 75.3 17v1.78h-2.19v2.82h2.19v18.78h4.45V21.55h4.57v-2.82h-4.57v-2.46a2.58 2.58 0 0 1 .13-.42 2 2 0 0 1 .81-.83 3.94 3.94 0 0 1 2.14-.45z"
      fill="#fff"/>
  </symbol>
  <symbol id="enefit-white" viewBox="0 0 145 75">
    <title>enefit-white</title>
    <path
      d="M88.09 43.76h5.08v4h-5.08zm23.14 27.94c.43-.14.91-.29 1.42-.43v-2.7a6.22 6.22 0 0 0-.85.13c-.51.08-1.21.19-2.1.3a22.5 22.5 0 0 1-2.57.14c-2.45 0-3.67-1.5-3.67-4.53V53.06h8.29v-2.82h-8.29v-3.46h-3.64L99 50.24h-2.63v2.82H99v11.48a9.29 9.29 0 0 0 .84 4.34 6.7 6.7 0 0 0 1.87 2.34 4.9 4.9 0 0 0 2 1 9.36 9.36 0 0 0 1.3.18c.8 0 2.64 0 3.25-.08a15.66 15.66 0 0 0 1.61-.25c.47-.1.93-.23 1.36-.34M1.6 45.56V72h19.06v-3.51h-14l.1-8.55h12.29v-3.1H6.74v-7.68h13.62v-3.6zM69.51 68a13.52 13.52 0 0 1-1.68.38c-.77.13-1.63.27-2.61.4s-2 .25-3.16.34-2.21.13-3.26.13a6.11 6.11 0 0 1-1.94-.29 4.06 4.06 0 0 1-1.17-.78 3.51 3.51 0 0 1-.75-1.18 3.2 3.2 0 0 1-.28-1.32v-2.79h13.79a1.63 1.63 0 0 0 1.27-.57 2.17 2.17 0 0 0 .53-1.58v-4.35a7.15 7.15 0 0 0-.32-2.1 5 5 0 0 0-1.09-2 5.71 5.71 0 0 0-2.13-1.46 9.05 9.05 0 0 0-3.42-.56h-5.73a8.53 8.53 0 0 0-3.37.61 6.28 6.28 0 0 0-2.28 1.63 7.09 7.09 0 0 0-1.32 2.35 9.26 9.26 0 0 0-.42 2.8v6.92a8.72 8.72 0 0 0 .89 4.32 7 7 0 0 0 2 2.36 5.5 5.5 0 0 0 2.19 1 12.62 12.62 0 0 0 1.37.17c1.75 0 4.9-.08 6.29-.24a31.94 31.94 0 0 0 3.55-.57c1-.2 2-.47 3-.8zm-3.4-7.71H54.66v-3.86a3.45 3.45 0 0 1 .77-2.32 3 3 0 0 1 2.46-.9h5a3 3 0 0 1 2.45.9 3.4 3.4 0 0 1 .77 2.32zM46.12 72V57.66a11.81 11.81 0 0 0-.63-4.32A5.66 5.66 0 0 0 43.92 51a4.58 4.58 0 0 0-2-1 11.94 11.94 0 0 0-2.09-.19 25.85 25.85 0 0 0-3.92.3c-1.17.22-2.24.46-3.22.72s-2.14.61-3.46 1l-.68-1.62h-3.68V72h4.51V54.42c1.42-.29 2.64-.53 3.64-.69l3-.47a15 15 0 0 1 2.17-.26 3 3 0 0 1 1.78.45 3 3 0 0 1 1.11 1.13 3.91 3.91 0 0 1 .45 1.45 13 13 0 0 1 .09 1.46V72zm42.25 0h4.48V50.3h-4.48zm-3.09-25.87v-2.45a35.6 35.6 0 0 0-5-.32 9.12 9.12 0 0 0-2.29.3 4.23 4.23 0 0 0-1.5.91 5 5 0 0 0-1.06 1.59 6 6 0 0 0-.4 2.35v1.79h-2.2v2.81H75v18.81h4.43V53.11H84V50.3h-4.58v-2.47a2.78 2.78 0 0 1 .14-.42 2 2 0 0 1 .81-.83 4 4 0 0 1 2.14-.45zM100.69 31.18v-.33c-.06-1.22-.35-3.57-.35-6.38v-.53c.11-5.77 10.56-12.4 23.23-15.93l.07-.23c-.21-.47-.56-1.28-.8-1.69-.13-.23-.23-.54-.47-.66a3.79 3.79 0 0 0-1 .22 50.77 50.77 0 0 0-20.62 11.91c-4 3.7-7.15 7.46-11 10.82 0 0-6.2 6.32-10.36 6.59a3.48 3.48 0 0 1-1.75-.32c-1.46-.65-4-3.53-5.14-5.61a16.21 16.21 0 0 0-4 4.57c-.07.13-.21.44-.3.58s-.83.36-1.08.15v-.38c.41-2.43.56-2.94.56-2.94A15.53 15.53 0 0 1 71 26l-.15-.41a18.33 18.33 0 0 1-1-6.56c.29-5.27 2-9 4.36-10.44 0 0 2.88-1.68 5-2.82a2.75 2.75 0 0 1 1.86-.49c1.2.07 3 1.08 5.53 3.22s5 4.57 5.39 6.46a2.38 2.38 0 0 1-.14 1.5l-2.77 4.15c-.62.94-4 1.64-9.06 4.11l-.6.27a14.69 14.69 0 0 0 1.8 2.06 1.89 1.89 0 0 0 .92.57c1.18.34 3.13-.56 7.48-4.72 1.25-1.2 6.08-6.05 9.61-9 0 0 9.34-8.47 18.4-11a5.74 5.74 0 0 1 2.73-.18 56.12 56.12 0 0 1 5.66 2 5.87 5.87 0 0 1 2.4 2.06 97.4 97.4 0 0 1 12-1.64h.31l2 .74c.78.29.8.55.43.66a98 98 0 0 0-13.3 2.94c1.41 3.49 2 6.51 2 12.19.08 7.87-3.14 20.53-15.76 20.71-5.33.08-11.66-5.24-14.72-9.55a5.47 5.47 0 0 1-.72-1.59M114 35h.17c8.18.37 11-8.95 11.19-15.63a43.19 43.19 0 0 0-.77-8.25c-12 4.68-19.56 10.54-22.06 15.66 2.87 4.27 7.53 8 11.45 8.2zM77.55 21.54a97.46 97.46 0 0 1 10-3.83l.05-.06a19.13 19.13 0 0 0-4.19-4.32 51 51 0 0 0-5.64-3.92h-.05a16.24 16.24 0 0 0-1.23 5.43 15.56 15.56 0 0 0 1 6.73"
      fill="#fff"/>
  </symbol>
  <symbol id="energia-horizontal-white" viewBox="0 0 750.45 128.91">
    <title>energia-horizontal-white</title>
    <path
      d="M750 11.25h-.06a1.08 1.08 0 0 0-.78-.3l-.19-.08h-.07l-.29-.07-.17-.07a3.43 3.43 0 0 0-.52-.23 1 1 0 0 0-.37-.11.71.71 0 0 0-.37-.15.75.75 0 0 0-.45-.16.85.85 0 0 0-.37-.15h-.17l-.19-.07a.92.92 0 0 0-.36-.13h-.21a.7.7 0 0 0-.49-.22.48.48 0 0 0-.22-.12 1 1 0 0 0-.62-.39h-.1a.76.76 0 0 0-.58-.25.86.86 0 0 0-.41-.16.74.74 0 0 0-.51-.2h-.27a1.91 1.91 0 0 0-1.13-.14 306.42 306.42 0 0 0-39.1 5.44 27.06 27.06 0 0 0-3-3.59 13.33 13.33 0 0 0-5.33-3.33c-.3-.12-.6-.23-.9-.32a10.12 10.12 0 0 0-1.6-.65l-.51-.18c-.22-.1-.45-.21-.68-.29h-.08c-.33-.12-.66-.22-1-.31l-.62-.23-.41-.15a12.56 12.56 0 0 0-1.46-.5 11.78 11.78 0 0 0-1.83-.67l-.81-.24c-.27-.11-.55-.23-.83-.32a11.86 11.86 0 0 0-1.29-.5c-.26-.13-.53-.22-.79-.33s-.49-.21-.74-.3l-.33-.14a7.71 7.71 0 0 0-1-.43 8.87 8.87 0 0 0-1.5-.44L677 .62a10.19 10.19 0 0 0-1.53-.42c-3.34-.65-6.86.44-10 1.37a100.64 100.64 0 0 0-16.87 6.91C631.6 17 616 28.53 602 41.25c-13.31 12-25.23 26.47-40.2 36.55a22.27 22.27 0 0 1-7.8 3.67c-3.92.77-6.77-3.54-9-6.11-.68-.79-1.34-1.61-2-2.44 8.93-3.8 18.11-7.11 26.27-11.08 1.71-.89 4.52-2.1 5.56-4a4.48 4.48 0 0 0 .28-.47.15.15 0 0 1 .07-.12l.26-.4a5.36 5.36 0 0 0 .38-.59 5.48 5.48 0 0 0 .35-.49l.13-.17c.08-.12.18-.23.26-.35v-.11c0-.06.1-.12.14-.19l.15-.17c.07-.1.12-.21.19-.32s0-.05.06-.07.08-.15.13-.22a6.18 6.18 0 0 0 .36-.53l.21-.31a3 3 0 0 0 .27-.42l.22-.33a3 3 0 0 0 .52-.76 3.18 3.18 0 0 0 .23-.4 3.51 3.51 0 0 0 .47-.79 2.91 2.91 0 0 0 .32-.46L580 50a3.17 3.17 0 0 0 .41-.62 3.29 3.29 0 0 0 .64-1l.06-.1a3.85 3.85 0 0 0 .36-.62l.23-.31a3.78 3.78 0 0 0 .53-.83l.06-.11a3.51 3.51 0 0 0 .27-.4 3.75 3.75 0 0 0 .55-1 4.91 4.91 0 0 0 .92-3.65c-.62-5-4.8-9.64-8-13.17a88.74 88.74 0 0 0-14.79-12.71c-3.77-2.63-8.2-5.62-12.85-6.37a8.09 8.09 0 0 0-5.14 1 10.4 10.4 0 0 0-1.27.69 8.92 8.92 0 0 0-.95.54c-.22.11-.44.24-.65.36-.37.18-.72.37-1.07.58a11.18 11.18 0 0 0-1.06.61 3.37 3.37 0 0 0-.32.19 9.05 9.05 0 0 0-1 .59l-.13.07c-.27.14-.54.3-.8.47l-.09.05c-.23.12-.46.25-.68.39l-.44.25a10.59 10.59 0 0 0-1.07.66l-.21.11c-.34.16-.67.33-1 .52a8.31 8.31 0 0 0-.76.44l-.17.1a10.52 10.52 0 0 0-1.47.81c-.3.16-.59.32-.88.51s-.55.29-.81.46l-.29.16-.5.26a12.66 12.66 0 0 0-1.14.63 16.47 16.47 0 0 0-4.75 4c-6.82 8.06-9.33 19.78-9.85 30a59.46 59.46 0 0 0 3.4 22.78 51.14 51.14 0 0 0-11 16.18.31.31 0 0 0 0 .32.49.49 0 0 0 0 .17c-.05.11-.1.21-.14.32a.31.31 0 0 0 0 .32.36.36 0 0 0 0 .25v.1a.34.34 0 0 0 0 .2.16.16 0 0 1-.07.16.54.54 0 0 0 0 .18v.06a.49.49 0 0 0 0 .17v.1a.37.37 0 0 0 0 .21c0 .13-.12.25-.17.38a.29.29 0 0 0 0 .35.25.25 0 0 0 0 .17.31.31 0 0 0 0 .19v.1a.31.31 0 0 0 0 .23.39.39 0 0 0 0 .26.49.49 0 0 0 0 .17l-.07.15a.29.29 0 0 0 0 .31v.07l-.07.15a.41.41 0 0 0 0 .22v.06a.41.41 0 0 0 0 .22v.08a.45.45 0 0 0 0 .23.38.38 0 0 0 0 .21l-.06.13a.31.31 0 0 0 0 .19V99a.34.34 0 0 0 0 .2v.08a.3.3 0 0 0 0 .26.28.28 0 0 0 0 .25v.09c0 .06-.05.1-.07.16a.3.3 0 0 0 0 .34.38.38 0 0 0 0 .21.38.38 0 0 0 0 .21.31.31 0 0 0 0 .1.34.34 0 0 0 0 .2v.09a.3.3 0 0 0 0 .29.31.31 0 0 0 0 .19.31.31 0 0 0 0 .23v.1a.33.33 0 0 0 0 .24v.07a.38.38 0 0 0 0 .21c-.49 1 3.09.81 3.62-.25A47.81 47.81 0 0 1 521 85.52a59.47 59.47 0 0 0 5.85 8.48c3.77 4.54 8.58 10.31 14.83 10.9 4.77.46 9.7-1.75 13.7-4.06 14-8.1 25.44-20.71 36.72-32 14.35-14.46 28.5-28.95 45.71-40.08A157.5 157.5 0 0 1 680.33 9.5l1.57-.5a42.94 42.94 0 0 1 4.34 8.48 198 198 0 0 0-49.56 20.92c-9.15 5.53-18.79 12.58-24 22.19a16.25 16.25 0 0 0-2.09 7.79 18.21 18.21 0 0 0-.11 3.13v3.79a11.42 11.42 0 0 0 .11 1.55 10.84 10.84 0 0 0 0 1.14v.74a12 12 0 0 0 .08 1.7v.72a10.76 10.76 0 0 0 .07 1.5 17.5 17.5 0 0 0 .09 2.51 16.28 16.28 0 0 0 .1 2.21v1.11a10.36 10.36 0 0 0 .12 1.12v.74c.13 3.14 1.44 5.71 3.19 8.35a77 77 0 0 0 19.53 19.63c11.24 8.06 23.61 12.4 37.37 9.88 20-3.67 32.25-20.55 37.59-39.13a111 111 0 0 0-.07-59.8c-.69-2.34-1.49-4.73-2.43-7.08A344.13 344.13 0 0 1 748.11 13c2.23-.38 2.89-1.48 1.89-1.75zm-213.44 50.2a49 49 0 0 1-2.56-8.56 52 52 0 0 1 3-30.24l2 1.07a98.68 98.68 0 0 1 16.51 11.09 65.78 65.78 0 0 1 13 13.4c.19.27.4.59.62.94-2.87.92-5.76 1.81-8.63 2.75a177.69 177.69 0 0 0-23.94 9.55zM681.1 92.58a30 30 0 0 1-24.1 12.9c-8 .24-15.22-3.88-21.48-8.42A69.76 69.76 0 0 1 618 78.53c.33-.65.68-1.28 1-1.88 5.39-9.44 14.07-17 22.65-23.45 14.45-10.82 30.63-19 47.62-25.33.4 1.79.75 3.58 1.06 5.35 3.35 19.29 2.52 42.92-9.23 59.36zM9.82 78.21l.02-16.36h23.6V55.9H9.84V41.2h26.1v-6.9H0v50.63h36.52l-.01-6.72H9.82zM217.61 78.21V61.85h23.6V55.9h-23.6V41.2h26.11v-6.9h-35.94v50.63h36.51l-.01-6.72h-26.67zM79.36 47.27a9.86 9.86 0 0 0-4.07-2.78 16.53 16.53 0 0 0-6.49-1.11h-11a15.6 15.6 0 0 0-6.43 1.19A12.11 12.11 0 0 0 47 47.65a13.15 13.15 0 0 0-2.53 4.57 17.44 17.44 0 0 0-.83 5.32v13.22a17.06 17.06 0 0 0 1.72 8.34 13.5 13.5 0 0 0 3.9 4.5 10.67 10.67 0 0 0 4.21 1.84 21.26 21.26 0 0 0 2.63.34c3.27 0 9.35-.18 12-.48s4.92-.66 6.78-1a51 51 0 0 0 5.78-1.55v-5.48c-1.06.29-2.13.53-3.22.72-1.47.24-3.09.52-5 .76s-4 .48-6.08.64-5.1.27-7.1.27a7.28 7.28 0 0 1-2.84-.57 8 8 0 0 1-2.24-1.57 6.9 6.9 0 0 1-1.44-2.14 6.09 6.09 0 0 1-.53-2.49v-5.43h26.35A3.23 3.23 0 0 0 81 66.4a4.27 4.27 0 0 0 1-3v-8.31a14.85 14.85 0 0 0-.51-4.09 9.66 9.66 0 0 0-2.13-3.73zm-5.9 15.18H52.2v-7.31a6.59 6.59 0 0 1 1.47-4.45c.95-1.16 2.52-1.71 4.71-1.71h8.9c2.18 0 3.72.55 4.72 1.71a6.65 6.65 0 0 1 1.46 4.45zM337 47.27a10.29 10.29 0 0 0-4.1-2.78 16.44 16.44 0 0 0-6.51-1.1h-11a15.61 15.61 0 0 0-6.39 1.18 12.27 12.27 0 0 0-4.39 3.08 13.75 13.75 0 0 0-2.61 4.57 18.1 18.1 0 0 0-.8 5.32v13.22c0 3.57.56 6.34 1.71 8.34a13.86 13.86 0 0 0 3.91 4.5 10.63 10.63 0 0 0 4.2 1.84 20.7 20.7 0 0 0 2.61.34c3.33 0 9.41-.18 12.05-.48s4.92-.66 6.78-1a51 51 0 0 0 5.78-1.55v-5.48A29.93 29.93 0 0 1 335 78c-1.45.24-3.11.52-5 .76s-3.95.48-6.07.64-5.12.27-7.12.27a7.26 7.26 0 0 1-2.81-.57 8.14 8.14 0 0 1-2.23-1.58 6.65 6.65 0 0 1-1.45-2.14 6.1 6.1 0 0 1-.51-2.49v-5.44h26.39a3.28 3.28 0 0 0 2.46-1.06 4.32 4.32 0 0 0 1-3v-8.31a13.9 13.9 0 0 0-.61-4 9.74 9.74 0 0 0-2.05-3.81zm-5.95 15.18h-21.21v-7.31a6.64 6.64 0 0 1 1.45-4.45c1-1.16 2.53-1.71 4.71-1.71h8.89c2.16 0 3.69.55 4.69 1.71a6.54 6.54 0 0 1 1.47 4.45zM125.54 67a7 7 0 0 0-.16-1.29 7.17 7.17 0 0 0-.73-2 5.16 5.16 0 0 0-4.83-2.52H98.93v-8.6a3.61 3.61 0 0 1 .84-2.29 2.91 2.91 0 0 1 2.5-1.11h19.93v-5.76H103a15.13 15.13 0 0 0-9.1 2.49 8.7 8.7 0 0 0-3.44 7.48v7.29c0 4.19 2.38 6.27 7.06 6.27H117v8a5.33 5.33 0 0 1-1.2 3.35c-.74 1-2.14 1.57-4.23 1.57a67.2 67.2 0 0 1-7.12-.25c-2.33-.25-4.42-.35-6.25-.6s-6.06-.53-8.35-.86v5.92a160.93 160.93 0 0 0 23.31 1.69c.39 0 1.29-.08 2.64-.2a12.2 12.2 0 0 0 4.2-1.37 11 11 0 0 0 3.86-3.76 13.2 13.2 0 0 0 1.68-7.17zM155.68 79.31a42.61 42.61 0 0 1-4.92.31c-4.71 0-7.06-2.91-7.06-8.7v-22.1h15.93v-5.44h-15.89v-6.62h-7l-1.62 6.62h-5v5.44h5v21.94c0 3.57.5 6.34 1.58 8.34a13.45 13.45 0 0 0 3.6 4.5 9.3 9.3 0 0 0 3.9 1.84 18.87 18.87 0 0 0 2.49.34c1.54 0 5 0 6.2-.15s2.16-.29 3.08-.48 1.79-.44 2.62-.67l2.72-.81v-5.18c-.14 0-.63.08-1.63.25s-2.3.36-4 .57zM167.64 30.86h9.72v7.58h-9.72zM168.16 43.38h8.61v41.54h-8.61zM288.71 44.63a8.72 8.72 0 0 0-3.89-1.85 20.7 20.7 0 0 0-4-.39 48.55 48.55 0 0 0-7.52.58c-2.18.43-4.3.84-6.18 1.38s-4.1 1.19-6.6 2l-1.3-3.09h-7v41.62h8.59V51.23c2.77-.57 5.1-1 7-1.33s3.82-.58 5.76-.89a28.91 28.91 0 0 1 4.16-.44 5.84 5.84 0 0 1 3.43.85 5.68 5.68 0 0 1 2.1 2.17 7 7 0 0 1 .87 2.78 23.74 23.74 0 0 1 .17 2.79v27.72h8.55V57.43a22.9 22.9 0 0 0-1.19-8.29 10.41 10.41 0 0 0-2.95-4.51zM361.39 43.87c-1 .4-2.05.81-3 1.28a20.86 20.86 0 0 0-2.23 1.21l-1.29-3h-7v41.52h8.59V50.72c.37-.11.91-.22 1.62-.41s1.47-.35 2.32-.53 1.71-.32 2.54-.43a14.72 14.72 0 0 1 2.2-.17h1.65v-6.7a9.78 9.78 0 0 0-2.4.39 24.54 24.54 0 0 0-3 1zM411.77 44.41a3.5 3.5 0 0 0-2.77-1.07h-23.3a14.91 14.91 0 0 0-5.87 1.07 12.49 12.49 0 0 0-4.29 2.92 12.22 12.22 0 0 0-2.66 4.46 17.74 17.74 0 0 0-.91 5.69V69a18.66 18.66 0 0 0 1.52 8.34 12.3 12.3 0 0 0 3.51 4.48 9 9 0 0 0 4 1.86 23.27 23.27 0 0 0 3.11.33 63.7 63.7 0 0 0 7.81-.47c2-.31 3.9-.65 5.61-1a41.42 41.42 0 0 0 4.4-1.2c1.25-.39 2.12-.66 2.6-.85v3.05a7.67 7.67 0 0 1-.43 2.32 9.07 9.07 0 0 1-1.45 2.75 8.38 8.38 0 0 1-6.86 3.31c-2.17 0-6.53 0-8.53-.17s-3.34-.21-5-.38-3.38-.34-5.38-.58v5.66c2 .37 3.8.65 5.44.84s3 .32 5.09.52 8.55.28 10.64.28a20.67 20.67 0 0 0 4.49-.62 13 13 0 0 0 4.91-2.38 14.1 14.1 0 0 0 4-5 19 19 0 0 0 1.72-8.5v-1.28c0-.38-.06-1 0-2s.06-2.67.06-5V47.49c0-.08-.1-.48-.24-1.08a4.47 4.47 0 0 0-1.22-2zm-7.26 31.2c-2.59.45-4.69.79-6.59 1.1s-3.81.55-5.9.79a40.44 40.44 0 0 1-4.79.34 8.86 8.86 0 0 1-2.4-.34 5.65 5.65 0 0 1-3.7-3.24 8.55 8.55 0 0 1-.59-3.28v-15.7a6.39 6.39 0 0 1 1.52-4.7 6.5 6.5 0 0 1 4.75-1.49h17.7zM421.15 30.81h9.72v7.56h-9.72zM421.67 43.34h8.59v41.53h-8.59zM474.23 46.06a8 8 0 0 0-2.89-2 11.33 11.33 0 0 0-4.24-.72H444v5.76h19c2 0 3.3.42 3.93 1.29a4.64 4.64 0 0 1 1 3v5.76h-16.51a16 16 0 0 0-7 1.3 10.27 10.27 0 0 0-4 3.12 10 10 0 0 0-1.8 3.85 16.93 16.93 0 0 0-.44 3.4v2.39a14.32 14.32 0 0 0 1.12 6.06 10.3 10.3 0 0 0 6.32 5.86 12.79 12.79 0 0 0 3.36.57h2.49a48.71 48.71 0 0 0 6.38-.42 36.54 36.54 0 0 0 4-1 28.65 28.65 0 0 0 3.61-1.28c1.06-.51 2.08-.9 3-1.26l1.54 3.14h6.4V52.42a11.64 11.64 0 0 0-.55-3.46 7.64 7.64 0 0 0-1.62-2.9zm-6.33 30.87c-.69.22-1.68.44-2.86.81s-2.44.69-3.86 1-2.86.57-4.31.76a28 28 0 0 1-4.09.33 6.51 6.51 0 0 1-4.36-1.67 5.75 5.75 0 0 1-1.9-4.6v-4.74a3.3 3.3 0 0 1 .36-1.34 4.2 4.2 0 0 1 1-1.43 6.17 6.17 0 0 1 1.69-1.13 5.88 5.88 0 0 1 2.3-.47h16.07z"
      fill="#fff"/>
  </symbol>
  <symbol id="energia-white" viewBox="0 0 587.46 193.78">
    <title>energia-white</title>
    <path
      d="M587 11.18a1.6 1.6 0 0 0-.8-.3l-.2-.1h-.1c-.1 0-.2-.1-.3-.1l-.2-.1a2781568846089 2781568846089 0 0 0-.6-.2c-.1-.1-.2-.1-.4-.1s-.2-.1-.4-.1a.76.76 0 0 0-.5-.2c-.1-.1-.2-.1-.4-.1h-.2l.1-.2c-.1-.1-.2-.1-.4-.1h-.2a.76.76 0 0 0-.5-.2c-.1-.1-.1-.1-.2-.1a1.42 1.42 0 0 0-.6-.2l-.1-.1a.48.48 0 0 0-.6-.2c-.1-.1-.3-.1-.4-.2a.76.76 0 0 0-.5-.2h-.3a1.45 1.45 0 0 0-1.1-.1 322.4 322.4 0 0 0-39.1 5.4 26 26 0 0 0-3-3.6 12.83 12.83 0 0 0-5.3-3.3l-.9-.3a7.74 7.74 0 0 0-1.6-.7c-.2-.1-.3-.1-.5-.2s-.5-.2-.7-.3h-.1c-.3-.1-.7-.2-1-.3l-.6-.2-.4-.2a8.8 8.8 0 0 0-1.5-.5 13.36 13.36 0 0 0-1.8-.7 2.35 2.35 0 0 0-.8-.2 1.91 1.91 0 0 1-.8-.3 6.94 6.94 0 0 0-1.3-.5c-.3-.1-.5-.2-.8-.3a4.88 4.88 0 0 1-.7-.3l-.3-.1a4.18 4.18 0 0 0-1-.4 8.33 8.33 0 0 0-1.5-.4l-.4-.3a8.33 8.33 0 0 0-1.5-.4c-3.3-.6-6.9.4-10 1.4a103.33 103.33 0 0 0-16.9 6.9c-17 8.5-32.6 20-46.6 32.8-13.3 12-25.2 26.5-40.2 36.6a22.43 22.43 0 0 1-7.8 3.7c-3.9.8-6.8-3.5-9-6.1-.7-.8-1.3-1.6-2-2.4 8.9-3.8 18.1-7.1 26.3-11.1 1.7-.9 4.5-2.1 5.6-4 .1-.2.2-.3.3-.5a.1.1 0 0 1 .1-.1c.1-.1.2-.3.3-.4s.3-.4.4-.6a1.76 1.76 0 0 1 .4-.5l.1-.2.3-.3v-.1l.1-.2c0-.1.1-.1.1-.2l.2-.3.1-.1a.35.35 0 0 1 .1-.2c.1-.2.3-.3.4-.5s.1-.2.2-.3.2-.3.3-.4l.2-.3a2.18 2.18 0 0 0 .5-.8.76.76 0 0 0 .2-.4 2.18 2.18 0 0 0 .5-.8 2.19 2.19 0 0 0 .3-.5l.1-.2a2.09 2.09 0 0 0 .4-.6 2.07 2.07 0 0 0 .6-1l.1-.1a2.09 2.09 0 0 1 .4-.6l.2-.3a3.51 3.51 0 0 0 .5-.8l.1-.1c.1-.1.2-.3.3-.4a8.79 8.79 0 0 0 .6-1 4.93 4.93 0 0 0 .9-3.7c-.6-5-4.8-9.6-8-13.2a85.59 85.59 0 0 0-14.8-12.7c-3.8-2.6-8.2-5.6-12.9-6.4a7.52 7.52 0 0 0-5.1 1 8.26 8.26 0 0 0-1.3.7c-.3.2-.7.3-1 .5a2.09 2.09 0 0 0-.6.4 5.42 5.42 0 0 1-1.1.6c-.4.2-.7.4-1.1.6-.1.1-.2.1-.3.2a8.79 8.79 0 0 0-1 .6l-.1.1-.6.3-.1.1a2.51 2.51 0 0 0-.7.4l-.4.2a6.73 6.73 0 0 0-1.1.7l-.2.1c-.3.2-.7.3-1 .5s-.5.3-.8.4l-.2.1a10.93 10.93 0 0 0-1.5.8c-.3.2-.6.3-.9.5a3.51 3.51 0 0 0-.8.5l-.3.2-.5.3a10.91 10.91 0 0 0-1.1.6 18.28 18.28 0 0 0-4.8 4c-6.8 8.1-9.3 19.8-9.9 30a59.1 59.1 0 0 0 3.4 22.8 50 50 0 0 0-11 16.2.19.19 0 0 0 0 .3v.2c0 .1-.1.2-.1.3a.19.19 0 0 0 0 .3v.5c0 .1 0 .1-.1.2v.8c0 .1-.1.2-.2.4a.19.19 0 0 0 0 .3v1.2l-.1.2v.4l-.1.2v.5l-.1.1v.5a.19.19 0 0 0 0 .3V99.58c0 .1-.1.1-.1.2a.19.19 0 0 0 0 .3v2.1c-.5 1 3.1.8 3.6-.2a48.87 48.87 0 0 1 13.8-16.8 61.45 61.45 0 0 0 5.9 8.5c3.8 4.5 8.6 10.3 14.8 10.9 4.8.5 9.7-1.8 13.7-4.1 14-8.1 25.4-20.7 36.7-32 14.4-14.5 28.5-29 45.7-40.1a158.81 158.81 0 0 1 42.7-19l1.6-.5a45.22 45.22 0 0 1 4.3 8.5 202.1 202.1 0 0 0-49.6 20.8c-9.1 5.5-18.8 12.6-24 22.2a17.82 17.82 0 0 0-2.1 7.8 16.08 16.08 0 0 0-.1 3.1v2.7a2.2 2.2 0 0 0 .1.8c.1.2 0 .2 0 .3a9.15 9.15 0 0 0 .1 1.6v1.9a9.7 9.7 0 0 0 .1 1.7v.7a7.57 7.57 0 0 0 .1 1.5 20.9 20.9 0 0 0 .1 2.5 16.2 16.2 0 0 0 .1 2.2v1.1c0 .4.1.7.1 1.1v.7c.1 3.1 1.4 5.7 3.2 8.3a78.47 78.47 0 0 0 19.8 19.6c11.2 8.1 23.6 12.4 37.4 9.9 20-3.7 32.2-20.6 37.6-39.1a111.4 111.4 0 0 0-.1-59.8c-.7-2.3-1.5-4.7-2.4-7.1a351.61 351.61 0 0 1 41.9-9.2c1.6-.1 2.3-1.2 1.3-1.5zm-108.4 42a189.16 189.16 0 0 1 47.6-25.3c.4 1.8.8 3.6 1.1 5.4 3.3 19.2 2.5 42.9-9.2 59.3a30.19 30.19 0 0 1-24.1 12.9c-8 .2-15.2-3.9-21.5-8.4a68.52 68.52 0 0 1-17.5-18.5c.3-.7.7-1.3 1-1.9 5.4-9.5 14.1-17.1 22.6-23.5zm-86.1-18.4a63.55 63.55 0 0 1 13 13.4l.6.9c-2.9.9-5.8 1.8-8.6 2.8a182.91 182.91 0 0 0-23.9 9.5 50.25 50.25 0 0 1-2.6-8.6 52 52 0 0 1 3-30.2l2 1.1a97.24 97.24 0 0 1 16.5 11.1zM9.8 174.08v-16.3h23.6v-6H9.8v-14.7h26.1v-6.9H0v50.6h36.5v-6.7H9.8zM217.6 174.08v-16.3h23.6v-6h-23.6v-14.7h26.1v-6.9h-35.9v50.6h36.5v-6.7h-26.7zM79.4 143.18a9.71 9.71 0 0 0-4.1-2.8 16.19 16.19 0 0 0-6.5-1.1h-11a14.05 14.05 0 0 0-6.4 1.2 11.39 11.39 0 0 0-4.4 3.1 12.86 12.86 0 0 0-2.5 4.6 15.86 15.86 0 0 0-.8 5.3v13.2a18.19 18.19 0 0 0 1.7 8.3 14.12 14.12 0 0 0 3.9 4.5 11.16 11.16 0 0 0 4.2 1.8 11.53 11.53 0 0 0 2.6.3c3.3 0 9.4-.2 12-.5s4.9-.7 6.8-1a33.66 33.66 0 0 0 5.8-1.6v-5.4c-1.1.3-2.1.5-3.2.7-1.5.2-3.1.5-5 .8a57.3 57.3 0 0 1-6.1.6c-2.1.1-5.1.3-7.1.3a6.71 6.71 0 0 1-2.8-.6 6.91 6.91 0 0 1-2.2-1.6 6 6 0 0 1-1.4-2.1 7 7 0 0 1-.5-2.5v-5.4h26.4a3.19 3.19 0 0 0 2.4-1.1 4.06 4.06 0 0 0 1-3v-8.2a19.15 19.15 0 0 0-.5-4.1 15.39 15.39 0 0 0-2.3-3.7zm-5.9 15.2H52.2v-7.4a6.37 6.37 0 0 1 1.5-4.4c1-1.2 2.5-1.7 4.7-1.7h8.9a6 6 0 0 1 4.7 1.7 7.1 7.1 0 0 1 1.5 4.4zM338.2 173.18c-1.1.3-2.1.5-3.2.7-1.5.2-3.1.5-5 .8a57.3 57.3 0 0 1-6.1.6c-2.1.1-5.1.3-7.1.3a6.71 6.71 0 0 1-2.8-.6 6.91 6.91 0 0 1-2.2-1.6 8 8 0 0 1-1.5-2.1 7 7 0 0 1-.5-2.5v-5.4h26.4a3.58 3.58 0 0 0 2.5-1.1 4.06 4.06 0 0 0 1-3v-8.3a14.53 14.53 0 0 0-.6-4.1 9.5 9.5 0 0 0-2.1-3.8 10.71 10.71 0 0 0-4.1-2.8 16.19 16.19 0 0 0-6.5-1.1h-11a14.05 14.05 0 0 0-6.4 1.2 11.39 11.39 0 0 0-4.4 3.1 12.86 12.86 0 0 0-2.5 4.6 18.9 18.9 0 0 0-.8 5.3v13.2a17.13 17.13 0 0 0 1.7 8.3 14.12 14.12 0 0 0 3.9 4.5 10.52 10.52 0 0 0 4.2 1.8 11.53 11.53 0 0 0 2.6.3c3.3 0 9.4-.2 12-.5s4.9-.7 6.8-1.1a46 46 0 0 0 5.8-1.6zm-28.4-22.2a5.93 5.93 0 0 1 1.5-4.4c1-1.2 2.5-1.7 4.7-1.7h8.9a6 6 0 0 1 4.7 1.7 7.1 7.1 0 0 1 1.5 4.4v7.3h-21.2v-7.3zM120 180.08a10.91 10.91 0 0 0 3.9-3.8 13.92 13.92 0 0 0 1.7-7.2v-6.3a5.85 5.85 0 0 0-.2-1.3 6.79 6.79 0 0 0-.7-2 5 5 0 0 0-4.8-2.5h-21v-8.6a4 4 0 0 1 .8-2.3 2.71 2.71 0 0 1 2.5-1.1h19.9v-5.8H103a14.79 14.79 0 0 0-9.1 2.5 8.79 8.79 0 0 0-3.4 7.5v7.3c0 4.2 2.4 6.3 7.1 6.3H117v8a5.43 5.43 0 0 1-1.2 3.4c-.7 1.1-2.1 1.6-4.2 1.6-2.4 0-4.8 0-7.1-.2s-4.4-.4-6.2-.6-6.1-.5-8.3-.9v6a164.94 164.94 0 0 0 23.3 1.7c.4 0 1.3-.1 2.6-.2a15.57 15.57 0 0 0 4.1-1.5zM158.6 180.38l2.7-.8v-5.2c-.1 0-.6.1-1.6.2s-2.3.4-4 .6a40.28 40.28 0 0 1-4.9.3c-4.7 0-7.1-2.9-7.1-8.7v-22.1h15.9v-5.4h-15.9v-6.6h-7l-1.6 6.6h-5v5.4h5v21.9c0 3.6.5 6.3 1.6 8.3a14.32 14.32 0 0 0 3.6 4.5 9.3 9.3 0 0 0 3.9 1.8 10.68 10.68 0 0 0 2.5.3c1.5 0 5 0 6.2-.1a22.36 22.36 0 0 0 3.1-.5c.9-.2 1.8-.3 2.6-.5zM167.6 126.78h9.7v7.6h-9.7zM168.2 139.28h8.6v41.5h-8.6zM288.7 140.48a9.48 9.48 0 0 0-3.9-1.9 18.1 18.1 0 0 0-4-.4 47.4 47.4 0 0 0-7.5.6 51.57 51.57 0 0 0-6.2 1.4c-1.9.6-4.1 1.2-6.6 2l-1.3-3.1h-7v41.6h8.6v-33.6c2.8-.6 5.1-1 7-1.3s3.8-.6 5.8-.9a19.92 19.92 0 0 1 4.2-.4 5.16 5.16 0 0 1 3.4.9 5.56 5.56 0 0 1 2.1 2.2 7.09 7.09 0 0 1 .9 2.8 26.35 26.35 0 0 1 .2 2.8v27.7h8.5v-27.4a23.54 23.54 0 0 0-1.2-8.3 10.58 10.58 0 0 0-3-4.7zM356.5 146.58c.4-.1.9-.2 1.6-.4a15.54 15.54 0 0 1 2.3-.5c.8-.1 1.7-.3 2.5-.4a16.35 16.35 0 0 1 2.2-.2h1.6v-6.7a10 10 0 0 0-2.4.4c-1 .3-2 .6-3 1s-2 .8-3 1.3c-.8.4-1.5.8-2.2 1.2l-1.3-3h-7v41.5h8.6l.1-34.2zM411.8 140.28a3.36 3.36 0 0 0-2.8-1.1h-23.3a15.07 15.07 0 0 0-5.9 1.1 14.17 14.17 0 0 0-4.3 2.9 12.88 12.88 0 0 0-2.7 4.5 18.36 18.36 0 0 0-.9 5.7v11.5a19.44 19.44 0 0 0 1.5 8.3 12.76 12.76 0 0 0 3.5 4.5 9.87 9.87 0 0 0 4 1.9 16.28 16.28 0 0 0 3.1.3 68.07 68.07 0 0 0 7.8-.5c2-.3 3.9-.6 5.6-1a31.66 31.66 0 0 0 4.4-1.2c1.2-.4 2.1-.7 2.6-.9v3a8.66 8.66 0 0 1-1.9 5.1 7.54 7.54 0 0 1-2.7 2.3 8.68 8.68 0 0 1-4.2 1c-2.2 0-6.5 0-8.5-.2s-3.3-.2-5-.4-3.4-.3-5.4-.6v5.7c2 .4 3.8.6 5.4.8s3 .3 5.1.5 8.5.3 10.6.3a17.4 17.4 0 0 0 4.5-.6 12.3 12.3 0 0 0 4.9-2.3 13.07 13.07 0 0 0 4-5 19.31 19.31 0 0 0 1.7-8.5v-1.3a12.68 12.68 0 0 1 0-2c.1-1 .1-2.7.1-5v-25.8c0-.1-.1-.5-.2-1.1a4.39 4.39 0 0 0-1-1.9zm-7.3 31.2c-2.6.4-4.7.8-6.6 1.1s-3.8.6-5.9.8a38.66 38.66 0 0 1-4.8.3 9.86 9.86 0 0 1-2.4-.3 5.65 5.65 0 0 1-3.7-3.2 9.19 9.19 0 0 1-.6-3.3v-15.7a6.65 6.65 0 0 1 1.5-4.7 6.75 6.75 0 0 1 4.8-1.5h17.7zM421.1 126.68h9.7v7.6h-9.7zM421.7 139.18h8.6v41.5h-8.6zM474.2 141.98a7.22 7.22 0 0 0-2.9-2 10.32 10.32 0 0 0-4.2-.7H444v5.7h19c2 0 3.3.4 3.9 1.3a4.72 4.72 0 0 1 1 3v5.8h-16.5a15.32 15.32 0 0 0-7 1.3 11.08 11.08 0 0 0-4 3.1 9.3 9.3 0 0 0-1.8 3.9 13.17 13.17 0 0 0-.4 3.4v2.4a14.34 14.34 0 0 0 1.1 6.1 10.77 10.77 0 0 0 6.3 5.9 18.57 18.57 0 0 0 3.4.6h2.5a45.83 45.83 0 0 0 6.4-.4c1.4-.3 2.7-.6 4-1s2.4-.8 3.6-1.3 2.1-.9 3-1.3l1.5 3.2h6.4v-32.4a14.08 14.08 0 0 0-.5-3.5 7.14 7.14 0 0 0-1.7-3.1zm-6.3 30.9c-.7.2-1.7.4-2.9.8a31.48 31.48 0 0 1-3.9 1c-1.5.3-2.9.6-4.3.8a28.28 28.28 0 0 1-4.1.3 6.56 6.56 0 0 1-4.4-1.7 5.84 5.84 0 0 1-1.9-4.6v-4.7a2 2 0 0 1 .4-1.3 4.51 4.51 0 0 1 1-1.4 6.19 6.19 0 0 1 1.7-1.1 5.93 5.93 0 0 1 2.3-.5h16.1z"
      fill="#fff"/>
  </symbol>
</svg>
