<?xml version="1.0" encoding="UTF-8"?><!DOCTYPE svg PUBLIC "-//W3C//DTD SVG 1.1//EN" "http://www.w3.org/Graphics/SVG/1.1/DTD/svg11.dtd"><svg xmlns="http://www.w3.org/2000/svg"><symbol id="package-equal" viewBox="0 0 120 120"><title>package-equal</title><path d="M60 4A56 56 0 1 1 4 60 56.06 56.06 0 0 1 60 4m0-4a60 60 0 1 0 60 60A60 60 0 0 0 60 0z" fill="#4c5b68"/><path d="M81.35 86.29L55.08 60H22.21l16.44-16.42L55.05 60H65L38.7 33.7 12.38 60a47.62 47.62 0 0 0 95.24 0z" fill="#34b233"/><path fill="#34b233" d="M97.74 60.01H64.97L81.36 76.4l16.38-16.39z"/></symbol><symbol id="package-fix" viewBox="0 0 120 120"><title>package-fix</title><path d="M60 4A56 56 0 1 1 4 60 56.06 56.06 0 0 1 60 4m0-4a60 60 0 1 0 60 60A60 60 0 0 0 60 0z" fill="#4c5b68"/><path d="M107.64 60a47.64 47.64 0 0 1-95.28 0z" fill="#34b233"/></symbol><symbol id="package-gas-fix" viewBox="0 0 120 120"><title>package-gas-fix</title><path d="M60 4A56 56 0 1 1 4 60 56.06 56.06 0 0 1 60 4m0-4a60 60 0 1 0 60 60A60 60 0 0 0 60 0z" fill="#4c5b68"/><path d="M107.64 60a47.64 47.64 0 0 1-95.28 0z" fill="#23b8e3"/></symbol><symbol id="package-gas-spot" viewBox="0 0 120 120"><title>package-gas-spot</title><path d="M60 4A56 56 0 1 1 4 60 56.06 56.06 0 0 1 60 4m0-4a60 60 0 1 0 60 60A60 60 0 0 0 60 0z" fill="#4c5b68"/><path d="M107.64 60a47.64 47.64 0 0 1-95.28 0l9 6.28 9.78-11.76 9.77 10.79 9.78-7.06 9.77 6.62 9.78-16.46L80 64.28l9.78-9.52 9.77 9.52z" fill="#2182b2"/></symbol><symbol id="package-spot" viewBox="0 0 120 120"><title>package-spot</title><path d="M60 4A56 56 0 1 1 4 60 56.06 56.06 0 0 1 60 4m0-4a60 60 0 1 0 60 60A60 60 0 0 0 60 0z" fill="#4c5b68"/><path d="M107.64 60a47.64 47.64 0 0 1-95.28 0l9 6.28 9.78-11.76 9.77 10.79 9.78-7.06 9.77 6.62 9.78-16.46L80 64.28l9.78-9.52 9.77 9.52z" fill="#019b00"/></symbol></svg>