<svg id="Layer_1" data-name="Layer 1" xmlns="http://www.w3.org/2000/svg" xmlns:xlink="http://www.w3.org/1999/xlink" viewBox="0 0 154 40"><defs><style>.cls-1{fill:#233e51;}.cls-2{fill:#fff;}.cls-3{fill:url(#linear-gradient);}.cls-4{fill:url(#linear-gradient-2);}.cls-5{fill:url(#linear-gradient-3);}.cls-6{fill:url(#linear-gradient-4);}</style><linearGradient id="linear-gradient" x1="16.48" y1="21.52" x2="31.64" y2="16" gradientUnits="userSpaceOnUse"><stop offset="0" stop-color="#00dcff"/><stop offset="1" stop-color="#00c3ff"/></linearGradient><linearGradient id="linear-gradient-2" x1="33.04" y1="20" x2="43.19" y2="20" gradientUnits="userSpaceOnUse"><stop offset="0" stop-color="#fb0"/><stop offset="1" stop-color="#ffdc00"/></linearGradient><linearGradient id="linear-gradient-3" x1="20.58" y1="26.42" x2="37.26" y2="26.42" gradientUnits="userSpaceOnUse"><stop offset="0" stop-color="#e02553"/><stop offset="1" stop-color="#ff3a44"/></linearGradient><linearGradient id="linear-gradient-4" x1="19.76" y1="12.23" x2="37.34" y2="15.33" gradientUnits="userSpaceOnUse"><stop offset="0" stop-color="#11d674"/><stop offset="1" stop-color="#00f076"/></linearGradient></defs><title>google_play</title><rect class="cls-1" x="0.04" width="153.93" height="40" rx="20"/><path class="cls-2" d="M76.2,17.57a4.26,4.26,0,1,0,4.26,4.25A4.19,4.19,0,0,0,76.2,17.57Zm0,6.83a2.47,2.47,0,0,1-2.41-2.58,2.41,2.41,0,1,1,4.81,0A2.46,2.46,0,0,1,76.2,24.4Zm-9.32-6.83a4.26,4.26,0,1,0,4.27,4.25A4.19,4.19,0,0,0,66.88,17.57Zm0,6.83a2.46,2.46,0,0,1-2.4-2.58,2.41,2.41,0,1,1,4.8,0A2.46,2.46,0,0,1,66.88,24.4ZM55.8,18.88v1.8h4.32a3.77,3.77,0,0,1-1,2.27,4.42,4.42,0,0,1-3.34,1.32,4.8,4.8,0,0,1,0-9.6A4.64,4.64,0,0,1,59.06,16l1.27-1.27a6.3,6.3,0,0,0-4.53-1.82,6.61,6.61,0,1,0,0,13.21,6,6,0,0,0,4.61-1.86A6,6,0,0,0,62,20a6.27,6.27,0,0,0-.09-1.12Zm45.31,1.4a4,4,0,0,0-3.64-2.71,4,4,0,0,0-4,4.25,4.23,4.23,0,0,0,7.76,2.37l-1.45-1a2.43,2.43,0,0,1-2.09,1.17,2.15,2.15,0,0,1-2.06-1.29l5.68-2.35Zm-5.8,1.42a2.33,2.33,0,0,1,2.22-2.49,1.65,1.65,0,0,1,1.58.91Zm-4.62,4.12h1.87V13.32H90.69Zm-3.06-7.3h-.07a2.94,2.94,0,0,0-2.24-.95,4.26,4.26,0,0,0,0,8.51,2.88,2.88,0,0,0,2.24-1h.07v.61c0,1.63-.87,2.5-2.27,2.5a2.36,2.36,0,0,1-2.15-1.51l-1.62.67a4,4,0,0,0,3.77,2.52c2.19,0,4-1.29,4-4.43V17.83H87.63ZM85.48,24.4a2.44,2.44,0,0,1-2.36-2.56,2.45,2.45,0,0,1,2.36-2.59,2.39,2.39,0,0,1,2.28,2.59A2.38,2.38,0,0,1,85.48,24.4Zm24.39-11.08h-4.48v12.5h1.87V21.08h2.61a3.89,3.89,0,1,0,0-7.76Zm0,6h-2.65V15.06h2.65a2.14,2.14,0,1,1,0,4.28Zm11.54-1.79a3.49,3.49,0,0,0-3.33,1.91l1.65.69a1.78,1.78,0,0,1,1.71-.91,1.8,1.8,0,0,1,2,1.6V21a4.18,4.18,0,0,0-2-.48c-1.78,0-3.6,1-3.6,2.82a2.89,2.89,0,0,0,3.1,2.75,2.62,2.62,0,0,0,2.38-1.23h.07v1h1.8V21C125.24,18.79,123.58,17.55,121.45,17.55Zm-.23,6.85c-.61,0-1.46-.31-1.46-1.06,0-1,1.06-1.34,2-1.34a3.35,3.35,0,0,1,1.7.42A2.26,2.26,0,0,1,121.22,24.4Zm10.58-6.58-2.14,5.42h-.06l-2.22-5.42h-2l3.33,7.58-1.9,4.21h2l5.13-11.79Zm-16.8,8h1.86V13.32H115Z"/><path class="cls-3" d="M20.58,7.55A2,2,0,0,0,20.12,9v22.1a2,2,0,0,0,.46,1.4l.08.07L33,20.15v-.3L20.66,7.48Z"/><path class="cls-4" d="M37.16,24.27,33,20.15v-.3l4.12-4.12.1,0,4.89,2.78c1.39.79,1.39,2.09,0,2.88l-4.89,2.78Z"/><path class="cls-5" d="M37.26,24.22,33,20,20.58,32.45a1.62,1.62,0,0,0,2.08.06l14.6-8.29"/><path class="cls-6" d="M37.26,15.78,22.66,7.49a1.62,1.62,0,0,0-2.08.06L33,20Z"/></svg>