<svg id="Layer_1" data-name="Layer 1" xmlns="http://www.w3.org/2000/svg" viewBox="0 0 154 40"><defs><style>.cls-1{fill:#233e51;}.cls-2{fill:#fff;}</style></defs><title>apple_store</title><rect class="cls-1" x="0.34" width="153.32" height="40" rx="20"/><path class="cls-2" d="M38.4,19.78a6.05,6.05,0,0,1,2.89-5.09A6.22,6.22,0,0,0,36.4,12c-2.06-.22-4.06,1.23-5.11,1.23s-2.68-1.21-4.42-1.17a6.52,6.52,0,0,0-5.49,3.34c-2.37,4.11-.6,10.15,1.67,13.47,1.14,1.62,2.46,3.44,4.2,3.37s2.34-1.08,4.39-1.08,2.63,1.08,4.41,1,3-1.63,4.07-3.27A13.63,13.63,0,0,0,42,25.18a5.89,5.89,0,0,1-3.58-5.4"/><path class="cls-2" d="M35.05,9.86a6,6,0,0,0,1.37-4.28,6.09,6.09,0,0,0-3.94,2,5.73,5.73,0,0,0-1.4,4.12,5,5,0,0,0,4-1.87"/><path class="cls-2" d="M62,25.48H59.64l-1.3-4.09H53.82l-1.24,4.09H50.26l4.49-13.93h2.77ZM58,19.67,56.77,16c-.12-.37-.36-1.25-.7-2.62h0c-.14.59-.36,1.46-.66,2.62l-1.16,3.64Z"/><path class="cls-2" d="M73.56,20.33a5.72,5.72,0,0,1-1.39,4.05,4.06,4.06,0,0,1-3.08,1.33,3.08,3.08,0,0,1-2.85-1.43h0v5.29H64V18.74c0-1.07,0-2.18-.09-3.31h2L66,17h0a4,4,0,0,1,6.36-.39,5.55,5.55,0,0,1,1.19,3.7m-2.28.08A4.13,4.13,0,0,0,70.62,18a2.27,2.27,0,0,0-1.94-1,2.35,2.35,0,0,0-1.5.55A2.57,2.57,0,0,0,66.3,19a2.78,2.78,0,0,0-.1.68v1.67a2.67,2.67,0,0,0,.67,1.85,2.22,2.22,0,0,0,1.75.76,2.27,2.27,0,0,0,2-1,4.3,4.3,0,0,0,.7-2.57"/><path class="cls-2" d="M85.11,20.33a5.68,5.68,0,0,1-1.39,4.05,4,4,0,0,1-3.07,1.33,3.09,3.09,0,0,1-2.86-1.43h0v5.29H75.52V18.74c0-1.07,0-2.18-.08-3.31h2L77.53,17h0a4,4,0,0,1,6.35-.39,5.55,5.55,0,0,1,1.19,3.7m-2.27.08A4.06,4.06,0,0,0,82.17,18a2.25,2.25,0,0,0-1.94-1,2.35,2.35,0,0,0-1.5.55A2.56,2.56,0,0,0,77.86,19a2.87,2.87,0,0,0-.11.68v1.67a2.71,2.71,0,0,0,.67,1.85,2.22,2.22,0,0,0,1.75.76,2.26,2.26,0,0,0,2-1,4.3,4.3,0,0,0,.71-2.57"/><path class="cls-2" d="M98,21.57a3.68,3.68,0,0,1-1.24,2.89A5.45,5.45,0,0,1,93,25.68a6.63,6.63,0,0,1-3.61-.86L89.9,23a6.16,6.16,0,0,0,3.23.89,3.06,3.06,0,0,0,2-.57,1.89,1.89,0,0,0,.7-1.53,2,2,0,0,0-.58-1.42,5.39,5.39,0,0,0-1.92-1.08q-3.66-1.37-3.66-4a3.55,3.55,0,0,1,1.28-2.81,5.06,5.06,0,0,1,3.41-1.1,6.76,6.76,0,0,1,3.16.66l-.56,1.82a5.42,5.42,0,0,0-2.66-.64,2.67,2.67,0,0,0-1.84.58A1.65,1.65,0,0,0,91.87,15a1.68,1.68,0,0,0,.64,1.36,7.34,7.34,0,0,0,2,1.08,6.84,6.84,0,0,1,2.64,1.69A3.54,3.54,0,0,1,98,21.57"/><path class="cls-2" d="M105.41,17.11H103V22c0,1.23.43,1.86,1.3,1.86a3.87,3.87,0,0,0,1-.11l.07,1.7a5.24,5.24,0,0,1-1.74.24,2.68,2.68,0,0,1-2.07-.8,4,4,0,0,1-.74-2.71V17.11H99.29V15.43h1.47V13.59l2.19-.66v2.5h2.46Z"/><path class="cls-2" d="M116.51,20.37a5.54,5.54,0,0,1-1.32,3.81,4.73,4.73,0,0,1-3.68,1.53A4.5,4.5,0,0,1,108,24.24a5.36,5.36,0,0,1-1.31-3.7A5.5,5.5,0,0,1,108,16.71a4.7,4.7,0,0,1,3.65-1.48,4.59,4.59,0,0,1,3.56,1.46,5.34,5.34,0,0,1,1.28,3.68m-2.32.08a4.44,4.44,0,0,0-.6-2.39,2.19,2.19,0,0,0-2-1.2,2.24,2.24,0,0,0-2,1.2,4.61,4.61,0,0,0-.6,2.43,4.52,4.52,0,0,0,.6,2.38,2.27,2.27,0,0,0,2,1.2,2.23,2.23,0,0,0,2-1.22,4.47,4.47,0,0,0,.62-2.4"/><path class="cls-2" d="M123.76,17.4a3.14,3.14,0,0,0-.7-.07,2.13,2.13,0,0,0-1.82.89,3.39,3.39,0,0,0-.56,2v5.27h-2.23l0-6.88c0-1.16,0-2.22-.08-3.17h1.94l.09,1.92h.06a3.38,3.38,0,0,1,1.11-1.59,2.71,2.71,0,0,1,1.62-.53,3.09,3.09,0,0,1,.55,0Z"/><path class="cls-2" d="M133.75,20a5.65,5.65,0,0,1-.08,1H127a3,3,0,0,0,1,2.28,3.29,3.29,0,0,0,2.19.7,7.34,7.34,0,0,0,2.71-.48l.35,1.55a8.28,8.28,0,0,1-3.37.62,4.86,4.86,0,0,1-3.67-1.37,5.08,5.08,0,0,1-1.33-3.69,5.72,5.72,0,0,1,1.24-3.78,4.27,4.27,0,0,1,3.51-1.61,3.72,3.72,0,0,1,3.29,1.61,5.43,5.43,0,0,1,.89,3.16m-2.13-.58a3,3,0,0,0-.44-1.71,1.93,1.93,0,0,0-1.77-.93,2.11,2.11,0,0,0-1.78.91A3.35,3.35,0,0,0,127,19.4Z"/></svg>